<svg width="50" height="88" viewBox="0 0 50 88" fill="none" xmlns="http://www.w3.org/2000/svg">
<ellipse cx="25.0008" cy="86.6026" rx="24.9501" ry="0.941512" fill="#424242"/>
<path fill-rule="evenodd" clip-rule="evenodd" d="M28.502 32.4819C37.2267 32.4819 48.3848 33.9524 48.3848 42.7199C48.3848 51.9433 37.6804 55.3136 28.502 55.3136C20.8827 55.3136 13.5488 50.3765 13.5488 42.7199C13.5488 35.6191 21.4359 32.4819 28.502 32.4819Z" fill="#B12C2F"/>
<path fill-rule="evenodd" clip-rule="evenodd" d="M27.4903 0C36.0601 0 40.6157 9.00946 40.6157 17.5725C40.6157 25.3271 35.2511 32.4822 27.4903 32.4822C18.7248 32.4822 10.7227 26.3311 10.7227 17.5725C10.7227 8.09068 18.001 0 27.4903 0Z" fill="#B12C2F"/>
<path fill-rule="evenodd" clip-rule="evenodd" d="M28.8612 55.3137C39.2361 55.3137 43.4416 67.1758 43.4416 77.5761C43.4416 84.288 35.5566 86.6177 28.8612 86.6177C19.5256 86.6177 6.72266 86.9347 6.72266 77.5761C6.72266 65.3001 16.6153 55.3137 28.8612 55.3137Z" fill="#B12C2F"/>
</svg>
