<svg width="20" height="20" viewBox="0 0 20 20" fill="none" xmlns="http://www.w3.org/2000/svg">
<path d="M10.0094 6.40635C8.025 6.4001 6.4125 8.00635 6.40625 9.99072C6.4 11.9751 8.00625 13.5876 9.99063 13.5938C11.975 13.6001 13.5875 11.9938 13.5938 10.0095C13.6 8.0251 11.9937 6.4126 10.0094 6.40635ZM9.99063 7.66885C11.2781 7.6626 12.325 8.70322 12.3313 9.99072C12.3375 11.2782 11.2969 12.3251 10.0094 12.3313C8.72187 12.3376 7.675 11.297 7.66875 10.0095C7.6625 8.72197 8.70313 7.6751 9.99063 7.66885ZM12.9094 6.25947C12.9094 5.79697 13.2844 5.42197 13.7469 5.42197C14.2094 5.42197 14.5844 5.79697 14.5844 6.25947C14.5844 6.72197 14.2094 7.09697 13.7469 7.09697C13.2844 7.09697 12.9094 6.72197 12.9094 6.25947ZM16.9625 7.10947C16.9094 5.9876 16.6531 4.99385 15.8313 4.1751C15.0125 3.35635 14.0188 3.1001 12.8969 3.04385C11.7406 2.97822 8.275 2.97822 7.11875 3.04385C6 3.09697 5.00625 3.35322 4.18437 4.17197C3.3625 4.99072 3.10937 5.98447 3.05312 7.10635C2.9875 8.2626 2.9875 11.7282 3.05312 12.8845C3.10625 14.0063 3.3625 15.0001 4.18437 15.8188C5.00625 16.6376 5.99688 16.8938 7.11875 16.9501C8.275 17.0157 11.7406 17.0157 12.8969 16.9501C14.0188 16.897 15.0125 16.6407 15.8313 15.8188C16.65 15.0001 16.9062 14.0063 16.9625 12.8845C17.0281 11.7282 17.0281 8.26572 16.9625 7.10947ZM15.4688 14.1251C15.225 14.7376 14.7531 15.2095 14.1375 15.4563C13.2156 15.822 11.0281 15.7376 10.0094 15.7376C8.99062 15.7376 6.8 15.8188 5.88125 15.4563C5.26875 15.2126 4.79688 14.7407 4.55 14.1251C4.18438 13.2032 4.26875 11.0157 4.26875 9.99697C4.26875 8.97822 4.1875 6.7876 4.55 5.86885C4.79375 5.25635 5.26562 4.78447 5.88125 4.5376C6.80312 4.17197 8.99062 4.25635 10.0094 4.25635C11.0281 4.25635 13.2187 4.1751 14.1375 4.5376C14.75 4.78135 15.2219 5.25322 15.4688 5.86885C15.8344 6.79072 15.75 8.97822 15.75 9.99697C15.75 11.0157 15.8344 13.2063 15.4688 14.1251Z" fill="#191919"/>
</svg>
