<svg width="20" height="20" viewBox="0 0 20 20" fill="none" xmlns="http://www.w3.org/2000/svg">
<path d="M16 3H3.99688C3.44688 3 3 3.45313 3 4.00938V15.9906C3 16.5469 3.44688 17 3.99688 17H16C16.55 17 17 16.5469 17 15.9906V4.00938C17 3.45313 16.55 3 16 3ZM7.23125 15H5.15625V8.31875H7.23438V15H7.23125ZM6.19375 5C6.85937 5 7.39687 5.5375 7.39687 6.20312C7.39687 6.86875 6.85937 7.40625 6.19375 7.40625C5.52812 7.40625 4.99062 6.86875 4.99062 6.20312C4.99062 5.5375 5.52812 5 6.19375 5ZM15.0094 15H12.9344V11.75C12.9344 10.975 12.9187 9.97812 11.8562 9.97812C10.775 9.97812 10.6094 10.8219 10.6094 11.6938V15H8.53438V8.31875H10.525V9.23125H10.5531C10.8313 8.70625 11.5094 8.15312 12.5188 8.15312C14.6188 8.15312 15.0094 9.5375 15.0094 11.3375V15Z" fill="#191919"/>
</svg>
