<svg width="68" height="34" viewBox="0 0 68 34" fill="none" xmlns="http://www.w3.org/2000/svg">
<path d="M26.9072 2.59998C35.1327 2.59998 41.8007 9.26804 41.8007 17.4935C41.8007 19.1289 41.5356 20.7022 41.0486 22.1743H12.7658C12.2788 20.7022 12.0137 19.1289 12.0137 17.4935C12.0137 9.26804 18.6817 2.59998 26.9072 2.59998Z" fill="#B12C2F"/>
<path d="M1 22.3334C2.06667 22.3334 35.9334 22.3334 52.7334 22.3334" stroke="#191919" stroke-width="1.6" stroke-linecap="round"/>
<path d="M7.66797 27.6666C8.45972 27.6666 33.5979 27.6666 46.068 27.6666" stroke="#191919" stroke-width="1.6" stroke-linecap="round"/>
<path d="M17.2676 33C17.6635 33 30.2325 33 36.4676 33" stroke="#191919" stroke-width="1.6" stroke-linecap="round"/>
<path d="M56.9993 5.52321C58.9483 1.07546 62.3583 4.43531 62.3583 4.43531C62.3583 4.43531 62.734 -1.04374 66.2159 2.66991" stroke="#191919" stroke-width="1.6" stroke-linecap="round" stroke-linejoin="round"/>
</svg>
