<svg width="81" height="48" viewBox="0 0 81 48" fill="none" xmlns="http://www.w3.org/2000/svg">
<path d="M7.38895 46.8192C7.34106 46.8244 7.29716 46.8484 7.26692 46.886C7.23669 46.9235 7.22258 46.9715 7.22772 47.0194C7.23285 47.0673 7.25681 47.1112 7.29431 47.1414C7.33182 47.1717 7.37981 47.1859 7.42772 47.1808C7.42772 47.1808 7.42772 47.1808 7.42772 47.1808C7.89218 47.1314 8.35422 47.0597 8.81179 46.9665L8.82818 46.9624C9.28853 46.8234 9.74237 46.6633 10.1883 46.4842L10.2025 46.4777C10.6529 46.2509 11.0937 46.0054 11.5243 45.7435L11.5359 45.7359C11.9709 45.4244 12.3943 45.0971 12.8062 44.7563L12.8154 44.7482C13.23 44.3566 13.6321 43.952 14.0219 43.5362L14.029 43.5281C14.419 43.0619 14.796 42.5849 15.1606 42.0989C15.5275 41.5563 15.8759 41.0128 16.2121 40.4619C16.5459 39.8579 16.8627 39.2541 17.1674 38.6445C17.4654 37.9863 17.7477 37.3294 18.0183 36.6677C18.111 36.4164 18.1999 36.1709 18.2872 35.9249C18.4489 35.4696 18.6056 35.0125 18.7575 34.5539C18.9775 33.8108 19.1839 33.0704 19.3791 32.327C19.5577 31.5539 19.7235 30.7841 19.8783 30.012C20.0145 29.2175 20.1385 28.4268 20.2517 27.6346C20.3447 26.8275 20.4263 26.0247 20.4971 25.2209C20.5469 24.41 20.5857 23.604 20.6137 22.7975C20.6206 21.9916 20.6168 21.1911 20.6023 20.3908C20.5669 19.5985 20.5212 18.8122 20.4648 18.0267C20.3883 17.2563 20.3018 16.4928 20.2044 15.7306C20.0884 14.9902 19.9627 14.2575 19.8259 13.5268C19.6722 12.8241 19.5092 12.13 19.335 11.4387C19.1459 10.7805 18.948 10.1323 18.7384 9.48772C18.5166 8.88061 18.2864 8.28497 18.0442 7.69403C17.7923 7.14373 17.5328 6.6067 17.261 6.0757L17.256 6.06648C16.9817 5.5872 16.6961 5.11416 16.398 4.64881L16.391 4.63865C16.0942 4.22637 15.7858 3.82197 15.4649 3.42734L15.4554 3.41635C15.1391 3.0746 14.8116 2.74281 14.4718 2.42332L14.4588 2.41193C14.1263 2.14357 13.7831 1.88771 13.429 1.64707L13.4115 1.63633C13.0657 1.44379 12.7107 1.26666 12.3473 1.10766L12.3253 1.09935C11.9691 0.984944 11.6067 0.888808 11.2397 0.812916L11.2143 0.80913C10.8515 0.775082 10.4866 0.761257 10.1222 0.768082L10.0961 0.770054C9.73163 0.81789 9.36996 0.886108 9.01322 0.973433L8.98956 0.980586C8.62928 1.11019 8.27606 1.25847 7.93108 1.42307L7.91166 1.4335C7.56136 1.64283 7.22101 1.86803 6.89078 2.10651L6.87586 2.11823C6.54063 2.40378 6.21686 2.70218 5.90404 3.01114L5.89298 3.02285C5.57711 3.38014 5.27327 3.74762 4.98057 4.12339L4.97247 4.13446C4.67965 4.5584 4.39884 4.99031 4.12909 5.42874L4.12316 5.43895C3.85662 5.92391 3.6018 6.41508 3.35779 6.91137L3.35344 6.92073C3.11601 7.46059 2.88992 8.00528 2.67435 8.55394C2.4653 9.15077 2.27039 9.74268 2.08573 10.3377C1.91124 10.9753 1.74966 11.6076 1.59809 12.2423C1.4597 12.9135 1.33325 13.5792 1.21661 14.2465C1.11554 14.9438 1.02562 15.6353 0.94538 16.3279C0.8825 17.0437 0.830143 17.7533 0.787372 18.4634C0.763178 19.1898 0.748965 19.9097 0.744321 20.6296C0.75892 21.3587 0.783052 22.0809 0.816777 22.8027C0.86989 23.5268 0.93215 24.2435 1.00407 24.9592C1.09503 25.6707 1.19478 26.374 1.30431 27.0759C1.43209 27.7673 1.56828 28.4498 1.71444 29.1302C1.87766 29.7944 2.0489 30.4488 2.23031 31.1004C2.42728 31.7308 2.63177 32.3501 2.8467 32.966C3.07545 33.5562 3.31112 34.1342 3.55748 34.7077L3.56165 34.7169C3.81584 35.2521 4.08027 35.7827 4.35565 36.3077L4.36115 36.3177C4.64132 36.8013 4.93188 37.2791 5.23355 37.7501L5.24079 37.7608C5.54416 38.1882 5.85797 38.6086 6.18294 39.0205L6.19246 39.0318C6.51618 39.3992 6.85022 39.7579 7.19517 40.1063L7.20761 40.118C7.5488 40.4221 7.89989 40.7156 8.26116 40.9966L8.27717 41.0081C8.63299 41.2461 8.99777 41.4714 9.37132 41.682L9.39129 41.6922C9.75887 41.8618 10.1337 42.0166 10.5151 42.1545L10.5387 42.1619C10.9149 42.2611 11.2959 42.3435 11.6801 42.4078L11.7062 42.4109C12.0873 42.4382 12.4699 42.4475 12.852 42.4384L12.8785 42.4365C13.2602 42.3911 13.6396 42.3276 14.0152 42.2468L14.0398 42.2403C14.4172 42.1227 14.789 41.9881 15.1543 41.8383L15.1755 41.8285C15.5438 41.6404 15.904 41.4375 16.2559 41.2215L16.2733 41.21C16.628 40.9546 16.9733 40.6866 17.3091 40.4078L17.3228 40.3956C17.6602 40.0768 17.9874 39.7476 18.3047 39.4095L18.3153 39.3975C18.6321 39.0198 18.9383 38.6336 19.2346 38.2402L19.2428 38.2288C19.536 37.7973 19.8187 37.3589 20.0917 36.9146L20.0979 36.9039C20.365 36.424 20.6219 35.9386 20.8692 35.4485L20.874 35.4385C21.1129 34.9162 21.3418 34.3895 21.5613 33.859L21.565 33.8495C21.7737 33.291 21.9728 32.7291 22.1628 32.1641C22.3427 31.5671 22.5105 30.9762 22.6693 30.3831C22.8157 29.7636 22.951 29.1505 23.0775 28.5357C23.1898 27.9007 23.2917 27.2723 23.385 26.6426C23.4628 25.9989 23.5309 25.3621 23.5905 24.7245C23.6337 24.079 23.6679 23.4408 23.6936 22.8023C23.7027 22.1619 23.7032 21.5294 23.6953 20.8968C23.6708 20.2683 23.6383 19.6481 23.5973 19.0284C23.5402 18.4182 23.4756 17.8171 23.4024 17.2169C23.3141 16.6312 23.2187 16.0554 23.1146 15.4811C22.9966 14.9258 22.872 14.3814 22.7386 13.839L22.7359 13.8291C22.5926 13.3195 22.4407 12.812 22.2797 12.3073L22.2761 12.2966C22.1077 11.8283 21.9307 11.363 21.7443 10.9012L21.7392 10.8894C21.5482 10.4671 21.3484 10.0484 21.1389 9.63433L21.1319 9.62128C20.9208 9.24867 20.7006 8.88076 20.4705 8.51873L20.4608 8.50435C20.232 8.18468 19.9941 7.87101 19.7461 7.56486L19.7326 7.54928C19.4887 7.28518 19.2356 7.02873 18.9727 6.78184L18.9541 6.7657C18.6972 6.55935 18.4316 6.36271 18.1571 6.17803L18.1322 6.1629C17.8644 6.01628 17.5891 5.8818 17.3071 5.76174L17.2756 5.75028C16.9992 5.6655 16.7178 5.59527 16.433 5.54122L16.3969 5.5365C16.1153 5.51564 15.8323 5.51092 15.55 5.5226L15.5134 5.52625C15.2312 5.57052 14.9518 5.63089 14.6768 5.70614L14.6442 5.71699C14.3668 5.8258 14.0955 5.94905 13.8312 6.08473L13.805 6.09982C13.537 6.27083 13.2774 6.45382 13.0261 6.64669L13.0063 6.66321C12.7517 6.89301 12.5065 7.13233 12.27 7.37938L12.2555 7.39557C12.0174 7.68027 11.7888 7.97239 11.569 8.27051L11.5585 8.28562C11.3393 8.621 11.1296 8.96212 10.9285 9.30789L10.9209 9.32171C10.723 9.70324 10.5341 10.0892 10.3537 10.4788L10.3482 10.4914C10.1735 10.9142 10.0076 11.3404 9.84982 11.7695L9.84582 11.781C9.69612 12.24 9.55485 12.7015 9.42148 13.1652L9.4186 13.1759C9.29539 13.6655 9.1803 14.1571 9.07292 14.6502L9.0709 14.6603C8.97538 15.1749 8.88776 15.6908 8.80767 16.2079C8.73945 16.7511 8.68023 17.2857 8.62846 17.8209C8.59007 18.3768 8.55997 18.924 8.53723 19.4715C8.52891 20.0342 8.52825 20.5879 8.53495 21.1415C8.55666 21.705 8.58551 22.2592 8.62173 22.8129C8.67317 23.3713 8.73124 23.9199 8.79675 24.4677C8.87732 25.0152 8.96402 25.5524 9.05828 26.0883C9.16713 26.6193 9.2816 27.1393 9.40375 27.6576L9.40627 27.6676C9.53981 28.1669 9.68088 28.6643 9.8298 29.1595L9.83316 29.17C9.99176 29.6421 10.158 30.1117 10.3323 30.5785L10.3367 30.5897C10.5187 31.0298 10.7085 31.4668 10.9065 31.9003L10.9123 31.9123C11.1158 32.3162 11.3272 32.7164 11.5471 33.1121L11.5546 33.125C11.7777 33.4888 12.0087 33.8481 12.2483 34.2019L12.2582 34.2157C12.4987 34.5362 12.7472 34.8511 13.0043 35.1593L13.0171 35.1738C13.273 35.4482 13.5367 35.7158 13.8088 35.9751L13.8253 35.9899C14.0944 36.2158 14.3709 36.4333 14.6552 36.6411L14.6763 36.6553C14.9564 36.8306 15.2433 36.9959 15.5367 37.1497L15.5625 37.162C15.8515 37.2849 16.1459 37.3962 16.445 37.4945L16.4751 37.5029C16.7704 37.5719 17.069 37.6278 17.3698 37.6698L17.4026 37.6728C17.701 37.6867 18.0003 37.6868 18.2988 37.6729L18.3316 37.6698C18.6295 37.6283 18.9254 37.5731 19.2181 37.5049L19.2483 37.4964C19.5418 37.4002 19.8308 37.2914 20.1146 37.1711L20.1406 37.1588C20.4258 37.0099 20.7049 36.8499 20.9775 36.6801L20.9988 36.6658C21.2726 36.4668 21.5392 36.2585 21.7985 36.0421L21.8154 36.0271C22.075 35.7815 22.327 35.5281 22.5714 35.2681L22.5845 35.2533C22.8277 34.9645 23.063 34.6695 23.2908 34.3691L23.3009 34.355C23.5256 34.0271 23.7425 33.6942 23.952 33.357L23.9598 33.3437C24.1643 32.9811 24.3612 32.6143 24.5508 32.2441L24.5569 32.2316C24.7397 31.8387 24.9151 31.4426 25.0835 31.0436L25.0882 31.0319C25.248 30.6135 25.4008 30.1925 25.5468 29.7692L25.5504 29.7581C25.6863 29.3192 25.8154 28.8782 25.9379 28.4354L25.9406 28.4249C26.052 27.9705 26.1567 27.5145 26.2549 27.0572L26.2569 27.047C26.3432 26.5824 26.423 26.1166 26.4964 25.6497L26.4978 25.6398C26.5588 25.1701 26.6135 24.6996 26.6619 24.2284C26.6986 23.7491 26.7282 23.279 26.7516 22.8087C26.7629 22.3346 26.7678 21.8701 26.7665 21.4056C26.753 20.9417 26.7336 20.4877 26.7081 20.0341L26.7074 20.0239C26.6707 19.5849 26.628 19.1463 26.5791 18.7083L26.5777 18.6976C26.5187 18.2782 26.4537 17.8596 26.3823 17.4418L26.3802 17.4305C26.3002 17.0349 26.2141 16.6404 26.1216 16.2472L26.1185 16.235C26.019 15.8671 25.9133 15.5007 25.801 15.136L25.7966 15.1228C25.6792 14.7861 25.5556 14.4513 25.425 14.1188L25.4189 14.1043C25.2854 13.8018 25.1454 13.5017 24.9983 13.2048L24.9898 13.1886C24.8419 12.9229 24.6875 12.6604 24.5256 12.4018L24.5136 12.3839C24.3531 12.1571 24.1859 11.9344 24.011 11.7169L23.9942 11.6973C23.8226 11.5111 23.6443 11.3302 23.4584 11.1561L23.4349 11.1357C23.2536 10.9916 23.0658 10.8543 22.8712 10.7258L22.8392 10.7069C22.6495 10.6064 22.4542 10.5148 22.2536 10.434L22.213 10.4202C22.0166 10.3654 21.8164 10.3214 21.6139 10.2896L21.5678 10.2852C21.3677 10.278 21.1669 10.2829 20.9672 10.2998L20.9217 10.3065C20.7223 10.3477 20.5257 10.4006 20.3332 10.4641L20.294 10.4795C20.1001 10.5678 19.9116 10.6662 19.7289 10.773L19.6984 10.7928C19.5136 10.9255 19.3356 11.0662 19.164 11.2133L19.1416 11.2341C18.9684 11.408 18.8024 11.588 18.6429 11.7728L18.6269 11.7926C18.4671 12.0044 18.3143 12.2209 18.1679 12.441L18.1566 12.4592C18.0115 12.7056 17.8733 12.9556 17.7412 13.2084L17.7331 13.2248C17.6042 13.5026 17.4817 13.783 17.3652 14.0655L17.3594 14.0804C17.2478 14.3859 17.1423 14.6933 17.0425 15.0024L17.0384 15.016C16.9451 15.3454 16.8577 15.6763 16.7758 16.0084L16.7729 16.021C16.6988 16.3704 16.6304 16.7209 16.5673 17.0722L16.5654 17.084C16.5112 17.4493 16.4626 17.8153 16.4191 18.1818L16.418 18.1931C16.3842 18.5701 16.3559 18.9475 16.3327 19.3251L16.3322 19.336C16.3191 19.7204 16.3114 20.105 16.3088 20.4895L16.3089 20.5002C16.3167 20.8877 16.3297 21.2751 16.3478 21.6623L16.3484 21.6729C16.3769 22.0593 16.4105 22.4453 16.4493 22.8309L16.4506 22.8416C16.4994 23.2227 16.5533 23.6032 16.6125 23.9829L16.6144 23.9938C16.6829 24.3656 16.7567 24.7365 16.8357 25.1063L16.8383 25.1177C16.9259 25.4763 17.0187 25.8337 17.1169 26.1897L17.1204 26.2016C17.2261 26.5433 17.337 26.8836 17.4535 27.2221L17.4581 27.2346C17.5807 27.5562 17.7088 27.8759 17.8425 28.1934L17.8484 28.2067C17.9869 28.505 18.1308 28.801 18.2805 29.0943L18.2881 29.1084C18.4411 29.3807 18.5995 29.6502 18.764 29.9163L18.7738 29.9314C18.9398 30.1752 19.1114 30.4156 19.289 30.6519L19.3016 30.6679C19.4793 30.8812 19.6626 31.0903 19.8518 31.2944L19.868 31.3109C20.0559 31.4919 20.2493 31.6678 20.4485 31.8377L20.469 31.8541C20.6658 32.0013 20.8677 32.1423 21.0748 32.2762L21.1002 32.2914C21.3044 32.4033 21.513 32.508 21.7259 32.6045L21.7563 32.6168C21.9662 32.6923 22.1795 32.7595 22.3956 32.8175L22.43 32.8252C22.6436 32.8632 22.8591 32.8921 23.0756 32.9114L23.1119 32.913C23.3266 32.9131 23.5414 32.9036 23.7554 32.8847L23.791 32.88C24.004 32.8422 24.2153 32.7953 24.424 32.7396L24.4565 32.7294C24.6649 32.6549 24.8701 32.5721 25.0714 32.4816L25.0993 32.4677C25.3007 32.3583 25.4977 32.2416 25.6902 32.1185L25.7131 32.1027C25.9053 31.9606 26.0926 31.8125 26.2749 31.659L26.2932 31.6426C26.4746 31.4706 26.6508 31.2935 26.8219 31.112L26.8364 31.0958C27.0056 30.8965 27.1696 30.6931 27.3285 30.4861L27.3398 30.4706C27.4957 30.2469 27.6465 30.0199 27.7924 29.79L27.8012 29.7753C27.9429 29.5304 28.0796 29.2827 28.2115 29.0326L28.2184 29.0188C28.345 28.7557 28.4669 28.4904 28.5841 28.2232L28.5895 28.2102C28.7005 27.9322 28.8068 27.6525 28.9087 27.3712L28.9129 27.3589C29.0077 27.0694 29.0981 26.7785 29.1842 26.4864L29.1874 26.4747C29.2658 26.1771 29.3399 25.8785 29.4098 25.5789L29.4123 25.5675C29.4741 25.2654 29.5318 24.9623 29.5854 24.6586L29.5872 24.6475C29.6325 24.3441 29.6738 24.0401 29.7111 23.7355L29.7122 23.7246C29.7412 23.4233 29.7663 23.1216 29.7875 22.8196L29.7881 22.8087C29.8011 22.5128 29.8104 22.2167 29.8158 21.9204L29.8158 21.9093C29.8135 21.622 29.8074 21.3346 29.7975 21.0472L29.7969 21.0358C29.7799 20.7599 29.7592 20.4841 29.7346 20.2086L29.7334 20.1966C29.7025 19.935 29.668 19.6736 29.6295 19.4127L29.6275 19.4C29.5837 19.1551 29.5363 18.9107 29.4848 18.6669L29.4817 18.6532C29.4261 18.4273 29.3668 18.202 29.3033 17.9777L29.2987 17.9626C29.2324 17.7576 29.1623 17.5535 29.0877 17.3506L29.0812 17.3338C29.0053 17.1514 28.9254 16.9701 28.8409 16.7904L28.8314 16.7715C28.7469 16.6128 28.6583 16.4558 28.5648 16.3008L28.551 16.2794C28.4589 16.1455 28.3624 16.0137 28.2607 15.8848L28.2405 15.861C28.1414 15.7526 28.0376 15.6471 27.9285 15.5455L27.8991 15.5205C27.7932 15.4384 27.6826 15.3604 27.567 15.2879L27.5257 15.2651C27.4133 15.2108 27.2967 15.1622 27.1764 15.1209L27.1234 15.1065C27.0056 15.0822 26.8855 15.0655 26.7644 15.0571L26.7058 15.0571C26.5864 15.0651 26.4674 15.0812 26.3506 15.1051L26.2968 15.1198C26.1806 15.1596 26.0678 15.2067 25.9589 15.2596L25.9166 15.2832C25.8078 15.3522 25.7036 15.4266 25.6039 15.505L25.5738 15.5311C25.4739 15.6259 25.379 15.7244 25.2885 15.8258L25.268 15.8506C25.1777 15.9684 25.0922 16.0888 25.0108 16.2112L24.9969 16.2336C24.9166 16.3721 24.8407 16.5124 24.7687 16.6542L24.7592 16.6741C24.6892 16.8311 24.6232 16.9895 24.5609 17.1489L24.5545 17.1665C24.4952 17.34 24.4397 17.5144 24.3876 17.6896L24.3833 17.7054C24.3352 17.8931 24.2906 18.0814 24.2493 18.2702L24.2464 18.2847C24.2098 18.4841 24.1767 18.684 24.1466 18.8842L24.1449 18.8977C24.1202 19.1065 24.0987 19.3156 24.0804 19.5248L24.0795 19.5375C24.0669 19.7532 24.0574 19.969 24.051 20.1848L24.0508 20.1971C24.0505 20.4171 24.0532 20.6371 24.0589 20.857L24.0593 20.8689C24.0711 21.0908 24.086 21.3125 24.1038 21.534L24.1049 21.5458C24.1288 21.7671 24.1556 21.988 24.1855 22.2085L24.1873 22.2204C24.2229 22.4386 24.2616 22.6563 24.3033 22.8735L24.3058 22.8855C24.3528 23.0984 24.4029 23.3106 24.4561 23.5221L24.4594 23.5345C24.5174 23.7398 24.5785 23.9443 24.6426 24.1479L24.6469 24.1607C24.7153 24.3564 24.7868 24.5511 24.8614 24.7447L24.8669 24.7582C24.945 24.9424 25.0262 25.1255 25.1107 25.3072L25.1177 25.3213C25.2048 25.4924 25.295 25.6621 25.3887 25.8301L25.3974 25.845C25.4928 26.0015 25.5913 26.1562 25.6933 26.309L25.7043 26.3247C25.8072 26.4652 25.9132 26.6037 26.0228 26.7399L26.0365 26.7561C26.1461 26.8797 26.2588 27.0008 26.375 27.1191L26.3922 27.1356C26.5076 27.2411 26.6262 27.3438 26.7481 27.4432L26.7692 27.4593C26.8897 27.5461 27.0133 27.6295 27.1398 27.709L27.1652 27.7238C27.29 27.7911 27.4174 27.8544 27.5474 27.9133L27.577 27.9254C27.705 27.9726 27.8351 28.0153 27.967 28.053L28.0001 28.0611C28.13 28.0877 28.2613 28.1093 28.3934 28.1258L28.4284 28.1287C28.5587 28.1346 28.6895 28.1353 28.8201 28.1309L28.8549 28.1283C28.9839 28.1137 29.1124 28.0941 29.2398 28.0697L29.2725 28.0621C29.3985 28.0279 29.5231 27.9891 29.646 27.946L29.6751 27.9346C29.7966 27.8821 29.9161 27.8255 30.0334 27.7652L30.0583 27.7513C30.1742 27.6821 30.2877 27.6094 30.3987 27.5335L30.4195 27.5184C30.5288 27.4341 30.6356 27.3469 30.7399 27.2571L30.7568 27.2417C30.859 27.1442 30.9587 27.0442 31.0558 26.942L31.0695 26.9269C31.1641 26.8179 31.2562 26.7068 31.3459 26.594L31.3569 26.5794C31.4436 26.4607 31.5279 26.3403 31.6098 26.2184L31.6187 26.2046C31.6973 26.078 31.7735 25.95 31.8475 25.8208L31.8547 25.8077C31.925 25.675 31.9931 25.5412 32.059 25.4063L32.0649 25.3939C32.1267 25.2569 32.1866 25.1191 32.2444 24.9803L32.2491 24.9685C32.3027 24.8291 32.3544 24.6889 32.4041 24.548L32.4079 24.5367C32.4532 24.3966 32.4968 24.2558 32.5385 24.1144L32.5416 24.1035C32.5789 23.9644 32.6145 23.8247 32.6484 23.6845L32.6509 23.6739C32.6804 23.5373 32.7084 23.4004 32.7348 23.2629L32.7366 23.2525C32.7588 23.1201 32.7796 22.9873 32.7987 22.8542L32.8 22.8438C32.8153 22.717 32.8291 22.5898 32.8414 22.4623L32.8423 22.4518C32.8511 22.3318 32.8586 22.2115 32.8646 22.0909L32.8649 22.0802C32.8678 21.9681 32.8694 21.8559 32.8696 21.7433L32.8695 21.7321C32.8671 21.6289 32.8634 21.5256 32.8583 21.4221L32.8575 21.41C32.8504 21.3166 32.8421 21.223 32.8323 21.1292L32.8307 21.1159C32.8196 21.0328 32.8072 20.9495 32.7933 20.8658L32.7905 20.8507C32.7759 20.7782 32.76 20.7055 32.7424 20.6323L32.7377 20.6144C32.7202 20.5525 32.7012 20.4903 32.6802 20.4275L32.6721 20.4052C32.6517 20.3536 32.6297 20.3014 32.605 20.2483L32.5899 20.219C32.5663 20.1766 32.5403 20.1334 32.51 20.089L32.4794 20.049C32.4498 20.0146 32.4162 19.979 32.3749 19.9427L32.3075 19.8939C32.2646 19.8684 32.2139 19.8436 32.1532 19.8247L32.0287 19.8043C31.967 19.8028 31.902 19.8108 31.8421 19.8277L31.7295 19.8764C31.6781 19.9075 31.6359 19.9421 31.6006 19.976L31.5487 20.0357C31.5188 20.0769 31.4948 20.1166 31.4743 20.1547L31.4536 20.1986C31.4354 20.2434 31.4203 20.2867 31.4072 20.329L31.3987 20.3604C31.3873 20.4094 31.3779 20.4574 31.3698 20.5048L31.3665 20.5287C31.3603 20.5824 31.3556 20.6355 31.352 20.6881L31.3512 20.7075C31.3497 20.7658 31.3496 20.8236 31.3504 20.8809L31.351 20.8977C31.3543 20.9599 31.3586 21.0217 31.364 21.0831L31.3656 21.0983C31.3735 21.1636 31.3825 21.2285 31.3924 21.2932L31.3949 21.3073C31.4075 21.3748 31.4211 21.442 31.4357 21.5087L31.4389 21.5224C31.4562 21.591 31.4745 21.6593 31.4938 21.7273L31.4979 21.7407C31.5198 21.8095 31.5427 21.8779 31.5667 21.9459L31.5716 21.9594C31.598 22.0273 31.6255 22.0949 31.654 22.162L31.6601 22.1756C31.6909 22.2418 31.7227 22.3075 31.7557 22.3727L31.763 22.3866C31.7979 22.4501 31.834 22.5131 31.8712 22.5754L31.8801 22.5896C31.9189 22.6496 31.959 22.709 32.0003 22.7677L32.0109 22.7821C32.0534 22.8379 32.0972 22.8929 32.1422 22.9471L32.1549 22.9617C32.2009 23.0125 32.2481 23.0625 32.2966 23.1115L32.3117 23.1261C32.3608 23.1713 32.4111 23.2156 32.4626 23.2587L32.4804 23.2729C32.5322 23.312 32.5853 23.35 32.6394 23.3867L32.66 23.3999C32.7142 23.4324 32.7694 23.4637 32.8258 23.4935L32.8491 23.505C32.9051 23.5307 32.9621 23.5548 33.0199 23.5773L33.0456 23.5864C33.1029 23.6049 33.1609 23.6216 33.2196 23.6367L33.2469 23.6428C33.3046 23.6538 33.3629 23.6632 33.4216 23.6707L33.4496 23.6734C33.5071 23.6772 33.5648 23.6793 33.6227 23.6796L33.6503 23.6789C33.7066 23.6758 33.7631 23.671 33.8194 23.6645L33.8455 23.6608C33.9 23.6513 33.9544 23.6403 34.0085 23.6277L34.0324 23.6214C34.0844 23.6063 34.1362 23.5899 34.1875 23.5721L34.2087 23.5641C34.2579 23.5443 34.3066 23.5233 34.3548 23.5011L34.3732 23.4922C34.419 23.4686 34.4644 23.444 34.5093 23.4185L34.5248 23.4092C34.5672 23.3829 34.6091 23.3557 34.6506 23.3278L34.6634 23.3188C34.7021 23.2907 34.7404 23.262 34.7784 23.2325L34.7887 23.2243C34.8237 23.1955 34.8584 23.1662 34.8928 23.1363L34.948 23.0793C35.2163 22.7919 35.9103 22.5881 36.5032 22.6095C39.9276 22.6237 43.3455 22.6227 46.7648 22.6267C52.1965 22.631 57.6412 22.6348 63.0612 22.6342C63.1898 22.6341 63.3131 22.583 63.4039 22.4919C63.4947 22.4009 63.5456 22.2774 63.5454 22.1487C63.5452 22.02 63.494 21.8966 63.4029 21.8058C63.3118 21.715 63.1885 21.6642 63.0599 21.6645C63.0599 21.6645 63.0599 21.6645 63.0599 21.6645C57.6413 21.6752 52.196 21.6815 46.7647 21.6873C43.3489 21.6897 39.9167 21.697 36.5148 21.6892C35.7431 21.7031 34.9501 21.785 34.2365 22.5016L34.2917 22.4445C34.2636 22.469 34.2351 22.4932 34.2061 22.5171L34.2165 22.5088C34.1864 22.5323 34.1558 22.5553 34.1248 22.5778L34.1376 22.5688C34.1057 22.5905 34.0733 22.6116 34.0404 22.6321L34.0559 22.6229C34.0223 22.6421 33.9882 22.6606 33.9537 22.6785L33.972 22.6695C33.9369 22.6857 33.9015 22.7011 33.8656 22.7156L33.8868 22.7077C33.8505 22.7203 33.8139 22.7321 33.7769 22.7429L33.8008 22.7366C33.7635 22.7453 33.7259 22.753 33.688 22.7597L33.7142 22.7559C33.676 22.7604 33.6376 22.7637 33.599 22.7659L33.6266 22.7652C33.5876 22.7651 33.5485 22.7637 33.5094 22.7612L33.5374 22.7639C33.4977 22.7589 33.4579 22.7526 33.4182 22.7451L33.4456 22.7512C33.4052 22.7409 33.365 22.7294 33.3248 22.7165L33.3505 22.7256C33.3097 22.7098 33.2691 22.6927 33.2288 22.6743L33.2521 22.6858C33.2111 22.6642 33.1705 22.6413 33.1302 22.6172L33.1508 22.6304C33.11 22.6028 33.0697 22.5741 33.03 22.5442L33.0478 22.5583C33.0078 22.5249 32.9683 22.4904 32.9296 22.4548L32.9447 22.4694C32.9059 22.4303 32.8679 22.3902 32.8306 22.3492L32.8433 22.3638C32.8064 22.3195 32.7703 22.2743 32.735 22.2283L32.7456 22.2427C32.711 22.1937 32.6773 22.144 32.6445 22.0935L32.6533 22.1077C32.6216 22.0547 32.5908 22.0012 32.5609 21.947L32.5682 21.9609C32.5397 21.9048 32.5122 21.8483 32.4856 21.7913L32.4916 21.8049C32.4668 21.7467 32.4428 21.6882 32.4198 21.6293L32.4248 21.6427C32.4038 21.5835 32.3838 21.524 32.3647 21.4643L32.3687 21.4777C32.3518 21.4186 32.3358 21.3593 32.3207 21.2999L32.3239 21.3135C32.3111 21.2556 32.2993 21.1977 32.2883 21.1398L32.2908 21.1539C32.2821 21.0986 32.2744 21.0434 32.2676 20.9882L32.2692 21.0034C32.2646 20.9519 32.2609 20.9006 32.2581 20.8496L32.2587 20.8664C32.2579 20.8201 32.258 20.7743 32.259 20.7289L32.2581 20.7484C32.2607 20.7088 32.2641 20.6698 32.2684 20.6318L32.2651 20.6557C32.2703 20.6244 32.2762 20.5943 32.2828 20.5656L32.2743 20.597C32.2808 20.5761 32.2875 20.5569 32.2942 20.5404L32.2736 20.5842C32.278 20.576 32.2815 20.5707 32.2825 20.5693L32.2306 20.629C32.2251 20.6342 32.2152 20.6428 32.1992 20.6526L32.0866 20.7013C32.0618 20.7083 32.0334 20.7118 32.0082 20.7111L31.8837 20.6908C31.8635 20.6844 31.8513 20.6778 31.8447 20.6739L31.7774 20.625C31.7785 20.626 31.7842 20.6313 31.7914 20.6397L31.7608 20.5998C31.7727 20.6172 31.7856 20.6382 31.7986 20.6613L31.7835 20.6319C31.7991 20.6652 31.8143 20.7008 31.829 20.7378L31.8209 20.7155C31.8369 20.7632 31.852 20.8124 31.8664 20.8626L31.8617 20.8447C31.8765 20.9056 31.8901 20.9676 31.9029 21.0303L31.9001 21.0152C31.9124 21.0885 31.9236 21.1625 31.9337 21.237L31.9321 21.2238C31.9411 21.3085 31.9489 21.3937 31.9555 21.4794L31.9548 21.4673C31.9596 21.5626 31.9632 21.6582 31.9656 21.7541L31.9655 21.7428C31.9655 21.8476 31.9642 21.9526 31.9617 22.0578L31.9621 22.047C31.9567 22.1601 31.9499 22.2734 31.9418 22.3867L31.9427 22.3763C31.9313 22.4965 31.9184 22.6168 31.9042 22.737L31.9056 22.7267C31.8877 22.8527 31.8683 22.9786 31.8475 23.1044L31.8493 23.094C31.8246 23.2242 31.7983 23.3543 31.7704 23.4841L31.7728 23.4735C31.7409 23.6064 31.7074 23.7391 31.6722 23.8713L31.6752 23.8604C31.6359 23.9944 31.5949 24.1278 31.5522 24.2608L31.556 24.2495C31.5092 24.3827 31.4607 24.5153 31.4103 24.6473L31.415 24.6355C31.3608 24.7662 31.3047 24.8961 31.2466 25.0252L31.2525 25.0127C31.1909 25.1392 31.1274 25.2646 31.0619 25.389L31.0691 25.3759C31.0004 25.4962 30.9297 25.6154 30.857 25.7332L30.8659 25.7193C30.7905 25.8319 30.7131 25.9429 30.6335 26.0524L30.6446 26.0378C30.563 26.1409 30.4793 26.2422 30.3934 26.3415L30.4071 26.3264C30.3199 26.4185 30.2306 26.5084 30.1392 26.596L30.1561 26.5806C30.0639 26.6603 29.9698 26.7375 29.8737 26.8118L29.8944 26.7967C29.798 26.8629 29.6998 26.926 29.5999 26.986L29.6248 26.9721C29.525 27.0237 29.4236 27.0719 29.3208 27.1165L29.3499 27.1051C29.2472 27.1414 29.1434 27.174 29.0386 27.2026L29.0712 27.195C28.9662 27.2154 28.8605 27.2317 28.7542 27.2439L28.789 27.2413C28.682 27.2451 28.5748 27.2447 28.4676 27.2401L28.5025 27.243C28.3938 27.2297 28.2854 27.212 28.1775 27.1902L28.2106 27.1982C28.1006 27.167 27.9914 27.1315 27.8834 27.0919L27.913 27.104C27.8024 27.0542 27.6933 27.0002 27.5857 26.9424L27.6111 26.9572C27.501 26.8883 27.3928 26.8156 27.2865 26.7394L27.3076 26.7555C27.1992 26.6675 27.0931 26.5759 26.9892 26.4814L27.0064 26.4979C26.901 26.391 26.7983 26.2811 26.698 26.1684L26.7117 26.1847C26.6108 26.0597 26.5126 25.932 26.4171 25.802L26.4281 25.8177C26.3328 25.6755 26.2405 25.5311 26.1509 25.3847L26.1596 25.3997C26.0712 25.2417 25.9858 25.0819 25.9031 24.9204L25.91 24.9346C25.8296 24.7624 25.7521 24.5887 25.6775 24.4136L25.683 24.4271C25.6114 24.2425 25.5428 24.0567 25.4771 23.8698L25.4814 23.8826C25.4195 23.6877 25.3606 23.4917 25.3046 23.2948L25.3079 23.3072C25.2564 23.104 25.2079 22.9 25.1622 22.6953L25.1647 22.7074C25.1242 22.4983 25.0865 22.2885 25.0518 22.0783L25.0536 22.0902C25.0244 21.8776 24.9981 21.6646 24.9747 21.4512L24.9758 21.463C24.9582 21.2494 24.9435 21.0357 24.9317 20.8217L24.9322 20.8336C24.9263 20.6217 24.9233 20.4097 24.9233 20.1978L24.9231 20.21C24.9289 20.0023 24.9376 19.7947 24.9493 19.5875L24.9484 19.6002C24.9656 19.3994 24.9858 19.199 25.0091 18.999L25.0073 19.0124C25.0356 18.8212 25.0669 18.6305 25.1013 18.4406L25.0984 18.455C25.1372 18.2759 25.1791 18.0975 25.2242 17.9203L25.2198 17.9361C25.2684 17.7715 25.3201 17.6081 25.3751 17.4462L25.3687 17.4638C25.4261 17.3162 25.4866 17.1701 25.5505 17.026L25.5411 17.0459C25.6061 16.9173 25.6742 16.7909 25.7457 16.6671L25.7318 16.6895C25.803 16.582 25.8772 16.4772 25.9545 16.3759L25.934 16.4008C26.0095 16.3158 26.0878 16.2344 26.1688 16.1572L26.1387 16.1833C26.2167 16.1216 26.2969 16.0643 26.3791 16.012L26.3369 16.0356C26.4158 15.997 26.4961 15.9635 26.5775 15.9353L26.5237 15.95C26.6032 15.9336 26.6834 15.9226 26.764 15.9171L26.7055 15.9171C26.7872 15.9226 26.869 15.9337 26.9505 15.9503L26.8974 15.9359C26.9832 15.9651 27.0681 16.0002 27.1518 16.0405L27.1104 16.0176C27.1998 16.0734 27.2872 16.1347 27.3725 16.2006L27.3431 16.1756C27.4338 16.2597 27.5216 16.3486 27.6067 16.4413L27.5864 16.4176C27.6756 16.5302 27.7614 16.6468 27.844 16.7664L27.8302 16.7451C27.9153 16.8855 27.9967 17.0291 28.0747 17.175L28.0652 17.1561C28.1441 17.323 28.2191 17.4923 28.2907 17.6634L28.2841 17.6467C28.3548 17.8382 28.4217 18.0316 28.4851 18.2265L28.4805 18.2114C28.5416 18.4256 28.5988 18.6411 28.6525 18.8579L28.6494 18.8441C28.6994 19.0786 28.7455 19.3142 28.7882 19.5506L28.7861 19.5379C28.8238 19.7903 28.8577 20.0434 28.8881 20.297L28.8869 20.2851C28.9113 20.5525 28.9318 20.8205 28.9489 21.0888L28.9483 21.0774C28.9585 21.357 28.9649 21.6369 28.9677 21.917L28.9678 21.9059C28.9631 22.1947 28.9546 22.4835 28.9424 22.7722L28.943 22.7613C28.9229 23.0559 28.899 23.3504 28.8712 23.6445L28.8724 23.6336C28.8366 23.9309 28.7968 24.2276 28.7532 24.5239L28.755 24.5128C28.7033 24.8092 28.6475 25.1049 28.5878 25.3998L28.5903 25.3884C28.5227 25.6805 28.451 25.9716 28.3752 26.2616L28.3785 26.2499C28.2953 26.5342 28.2079 26.8172 28.1163 27.0988L28.1205 27.0865C28.0221 27.3597 27.9195 27.6312 27.8124 27.9009L27.8178 27.8879C27.7049 28.1466 27.5877 28.4032 27.4659 28.6575L27.4728 28.6438C27.3462 28.8848 27.2152 29.1233 27.0795 29.3589L27.0884 29.3443C26.9492 29.5646 26.8054 29.7818 26.657 29.9956L26.6683 29.9801C26.5177 30.177 26.3626 30.3701 26.2029 30.559L26.2173 30.5429C26.0567 30.7138 25.8916 30.8803 25.7221 31.0417L25.7405 31.0253C25.5713 31.1682 25.398 31.3059 25.2206 31.4374L25.2435 31.4216C25.0673 31.5348 24.8874 31.6418 24.7041 31.7418L24.732 31.728C24.5501 31.8102 24.3653 31.8852 24.178 31.9525L24.2105 31.9423C24.0242 31.9924 23.836 32.0346 23.6465 32.0686L23.6821 32.0638C23.4924 32.0809 23.302 32.0896 23.1114 32.0899L23.1478 32.0915C22.9556 32.0748 22.764 32.0495 22.5736 32.0159L22.608 32.0235C22.4144 31.972 22.2228 31.912 22.0335 31.8443L22.0639 31.8566C21.8707 31.7695 21.6805 31.6745 21.4936 31.5725L21.5191 31.5876C21.3281 31.4647 21.1412 31.3347 20.9584 31.1985L20.9789 31.2149C20.7927 31.0565 20.6111 30.892 20.4341 30.7222L20.4503 30.7386C20.271 30.546 20.0968 30.348 19.9276 30.1456L19.9402 30.1615C19.7702 29.9362 19.6055 29.7065 19.4459 29.4729L19.4557 29.488C19.297 29.2323 19.1438 28.9728 18.9957 28.7102L19.0033 28.7244C18.8578 28.4408 18.7178 28.1542 18.5829 27.865L18.5888 27.8783C18.4582 27.5698 18.333 27.2589 18.2129 26.9459L18.2175 26.9584C18.1032 26.6284 17.9943 26.2964 17.8904 25.9627L17.8939 25.9746C17.7972 25.6266 17.7058 25.2771 17.6194 24.9262L17.622 24.9375C17.5439 24.5754 17.4709 24.212 17.403 23.8477L17.4049 23.8586C17.3462 23.4863 17.2926 23.1131 17.244 22.7393L17.2452 22.75C17.2064 22.3717 17.1727 21.9928 17.1441 21.6136L17.1447 21.6242C17.1262 21.2441 17.1128 20.8639 17.1044 20.4835L17.1045 20.4941C17.1063 20.1167 17.1132 19.7393 17.1253 19.3622L17.1248 19.373C17.1468 19.0026 17.174 18.6325 17.2064 18.2629L17.2052 18.2742C17.2471 17.9151 17.2941 17.5567 17.3464 17.1991L17.3445 17.2109C17.4055 16.8674 17.4717 16.5249 17.5434 16.1837L17.5405 16.1962C17.6197 15.8724 17.7043 15.5501 17.7945 15.2295L17.7904 15.243C17.8866 14.9429 17.9883 14.6447 18.0958 14.3488L18.0901 14.3637C18.202 14.0909 18.3194 13.8207 18.4428 13.5535L18.4348 13.5699C18.5606 13.3279 18.6921 13.0892 18.8297 12.8545L18.8183 12.8726C18.9562 12.6643 19.0997 12.4603 19.2492 12.2614L19.2333 12.2813C19.3811 12.1093 19.5343 11.9427 19.6932 11.7826L19.6708 11.8033C19.8263 11.6695 19.9867 11.5424 20.1519 11.4232L20.1214 11.4431C20.2824 11.3485 20.4475 11.2621 20.616 11.1849L20.5768 11.2004C20.7419 11.1456 20.9095 11.1001 21.079 11.0648L21.0334 11.0715C21.202 11.0568 21.3714 11.0524 21.5406 11.0582L21.4945 11.0538C21.6665 11.0805 21.8372 11.1176 22.006 11.1643L21.9654 11.1506C22.1399 11.2205 22.3111 11.3004 22.4788 11.3888L22.4468 11.3699C22.6213 11.4846 22.7911 11.6081 22.9561 11.7388L22.9325 11.7185C23.1038 11.8783 23.2692 12.0455 23.4293 12.2186L23.4124 12.199C23.577 12.403 23.7353 12.6129 23.8878 12.8276L23.8758 12.8096C24.0306 13.0558 24.1789 13.3067 24.3213 13.5614L24.3127 13.5453C24.455 13.8311 24.5908 14.1207 24.7206 14.4133L24.7145 14.3987C24.8418 14.7212 24.9627 15.0465 25.0776 15.3742L25.0733 15.361C25.1835 15.7166 25.2874 16.0744 25.3855 16.4341L25.3824 16.4219C25.4737 16.8068 25.5588 17.1934 25.638 17.5813L25.6359 17.57C25.7067 17.9801 25.7714 18.3913 25.8302 18.8036L25.8288 18.7929C25.8777 19.2236 25.9205 19.6552 25.9575 20.0873L25.9568 20.0771C25.9827 20.5238 26.0026 20.971 26.0166 21.4184C26.0185 21.8663 26.0146 22.3242 26.0047 22.782C25.9828 23.236 25.9544 23.6996 25.92 24.1627C25.874 24.6176 25.8209 25.0817 25.7617 25.545L25.7631 25.535C25.6915 25.9953 25.6137 26.4546 25.5296 26.9127L25.5316 26.9026C25.4357 27.3532 25.3334 27.8025 25.2246 28.2502L25.2273 28.2396C25.1077 28.6755 24.9815 29.1096 24.8485 29.5415L24.8522 29.5304C24.7096 29.9465 24.5603 30.3602 24.4041 30.7712L24.4088 30.7595C24.2445 31.151 24.0733 31.5394 23.895 31.9245L23.9011 31.912C23.7164 32.2743 23.5248 32.6328 23.3259 32.987L23.3338 32.9738C23.1304 33.3025 22.9201 33.6267 22.7024 33.9456L22.7125 33.9315C22.4924 34.2229 22.2654 34.5087 22.031 34.788L22.0441 34.7733C21.8094 35.0239 21.5678 35.2677 21.3193 35.5038L21.3361 35.4888C21.0889 35.6958 20.8354 35.8946 20.5754 36.0842L20.5967 36.0699C20.3393 36.2309 20.0762 36.3823 19.8079 36.523L19.8339 36.5107C19.5683 36.6239 19.2984 36.7261 19.0247 36.8163L19.055 36.8078C18.7831 36.8717 18.5086 36.9235 18.2323 36.9625L18.2651 36.9594C17.9886 36.9728 17.7116 36.9733 17.435 36.9609L17.4678 36.9639C17.1887 36.9255 16.9112 36.874 16.6362 36.8104L16.6663 36.8188C16.3868 36.7275 16.1111 36.6239 15.8396 36.509L15.8655 36.5212C15.5885 36.3767 15.3169 36.2209 15.0511 36.0552L15.0721 36.0694C14.801 35.8721 14.5365 35.6648 14.2786 35.4491L14.2952 35.4639C14.0332 35.2151 13.7787 34.958 13.5313 34.6936L13.5441 34.7081C13.2946 34.4102 13.053 34.1052 12.8188 33.7942L12.8287 33.808C12.5946 33.4639 12.3687 33.114 12.1502 32.7591L12.1578 32.772C11.9419 32.3853 11.7342 31.9938 11.534 31.5984L11.5397 31.6104C11.3446 31.1852 11.1574 30.7562 10.9777 30.3239L10.9821 30.3351C10.8097 29.8761 10.6452 29.414 10.4881 28.9493L10.4914 28.9598C10.3437 28.4719 10.2037 27.9816 10.071 27.4892L10.0735 27.4991C9.95195 26.9877 9.83795 26.4743 9.73127 25.9594C9.63897 25.4395 9.55229 24.9088 9.47288 24.3768C9.40833 23.8445 9.3499 23.3021 9.29873 22.7589C9.2626 22.2203 9.23306 21.6722 9.21079 21.1237C9.20338 20.5851 9.20301 20.0374 9.20999 19.4897C9.23122 18.9573 9.25998 18.4162 9.29619 17.8756C9.34562 17.3557 9.40316 16.8272 9.46827 16.2998C9.54509 15.7986 9.63066 15.289 9.72399 14.7809L9.72198 14.7909C9.82699 14.3043 9.93956 13.8195 10.0601 13.3367L10.0572 13.3474C10.1877 12.8907 10.3258 12.4363 10.4722 11.9847L10.4682 11.9963C10.6224 11.5747 10.7844 11.1562 10.9549 10.7414L10.9494 10.754C11.1252 10.3725 11.309 9.995 11.5015 9.62225L11.4939 9.63607C11.689 9.29917 11.8922 8.96731 12.1042 8.64156L12.0938 8.65667C12.3056 8.36823 12.5255 8.08618 12.7541 7.81189L12.7396 7.82809C12.9654 7.59133 13.199 7.36261 13.4407 7.1436L13.4209 7.16012C13.6579 6.9775 13.902 6.80487 14.153 6.64403L14.1267 6.65911C14.3724 6.5324 14.6238 6.4177 14.88 6.31665L14.8474 6.3275C15.0998 6.25792 15.3556 6.20219 15.6136 6.16121L15.5771 6.16486C15.8346 6.15373 16.0928 6.15754 16.3501 6.17611L16.314 6.1714C16.575 6.22043 16.8336 6.28441 17.0885 6.36209L17.057 6.35063C17.3189 6.46152 17.5755 6.58625 17.8263 6.72292L17.8014 6.70779C18.0603 6.88128 18.3118 7.06677 18.5561 7.26222L18.5375 7.24608C18.7891 7.48145 19.0321 7.72676 19.2671 7.98016L19.2536 7.96458C19.4936 8.25979 19.7245 8.56301 19.947 8.87273L19.9373 8.85835C20.1619 9.21036 20.3773 9.56873 20.5842 9.93228L20.5772 9.91923C20.7831 10.3242 20.9797 10.7343 21.1679 11.1484L21.1628 11.1366C21.3469 11.5902 21.5219 12.0477 21.6886 12.5084L21.6849 12.4977C21.8446 12.9949 21.9953 13.4952 22.1377 13.998L22.1351 13.9881C22.268 14.5237 22.3921 15.0615 22.508 15.6012C22.6102 16.1599 22.7057 16.7296 22.793 17.3006C22.8654 17.8861 22.9304 18.4815 22.9874 19.0777C23.0285 19.6834 23.0619 20.2981 23.0871 20.9131C23.0959 21.5321 23.0965 22.1593 23.089 22.7865C23.0648 23.4117 23.0321 24.0447 22.991 24.6771C22.9337 25.3014 22.8674 25.933 22.7925 26.5636C22.7022 27.1799 22.6023 27.8031 22.4938 28.4247C22.3711 29.026 22.2382 29.6337 22.0963 30.2393C21.9423 30.8185 21.7772 31.4038 21.603 31.9864C21.419 32.5367 21.223 33.0929 21.0177 33.6456L21.0214 33.6361C20.8055 34.1607 20.5803 34.6813 20.3455 35.1974L20.3503 35.1874C20.1074 35.6711 19.855 36.1501 19.5928 36.6233L19.599 36.6126C19.3314 37.0501 19.0541 37.4816 18.7669 37.9061L18.7751 37.8947C18.4852 38.281 18.1858 38.6599 17.8765 39.0302L17.8871 39.0183C17.5778 39.349 17.2593 39.6707 16.9312 39.9819L16.9449 39.9698C16.6191 40.2412 16.2846 40.5018 15.9414 40.7499L15.9588 40.7383C15.6194 40.9475 15.2723 41.1438 14.9181 41.3255L14.9393 41.3157C14.5891 41.4602 14.2329 41.5898 13.8718 41.7031L13.8964 41.6966C13.5378 41.7744 13.1758 41.8357 12.8117 41.8797L12.8382 41.8778C12.474 41.8871 12.1093 41.879 11.7456 41.8536L11.7718 41.8567C11.4048 41.796 11.0405 41.7179 10.6802 41.6236L10.7039 41.631C10.3378 41.4993 9.97727 41.3513 9.62313 41.1886L9.6431 41.1988C9.28204 40.9962 8.92882 40.779 8.58366 40.549L8.59967 40.5605C8.24811 40.2881 7.90589 40.0032 7.57281 39.7075L7.58526 39.7193C7.24758 39.3795 6.92011 39.0292 6.60237 38.67L6.61189 38.6814C6.29219 38.2777 5.98312 37.8654 5.68403 37.4456L5.69126 37.4563C5.39329 36.993 5.10604 36.5226 4.82883 36.0462L4.83433 36.0561C4.56145 35.5382 4.29921 35.0145 4.04696 34.4858L4.05114 34.4951C3.80635 33.9281 3.57202 33.3565 3.34758 32.781C3.13666 32.1798 2.93285 31.5663 2.73878 30.9496C2.56002 30.3117 2.38893 29.6628 2.22749 29.0115C2.08291 28.344 1.94644 27.6667 1.81953 26.9875C1.71069 26.2979 1.61031 25.5995 1.51945 24.8998C1.44748 24.1959 1.38429 23.484 1.33061 22.7713C1.29618 22.061 1.27087 21.3434 1.25507 20.6256C1.25841 19.917 1.2712 19.2017 1.29361 18.4866C1.33448 17.7877 1.38519 17.0826 1.44565 16.3784C1.52337 15.6972 1.6114 15.0103 1.70936 14.3248C1.82278 13.6692 1.94707 13.0082 2.08154 12.3494C2.22906 11.727 2.38815 11.0995 2.55769 10.4749C2.73725 9.893 2.92925 9.30627 3.13203 8.72339C3.34112 8.18874 3.56373 7.64963 3.79745 7.11552L3.7931 7.12489C4.03311 6.63444 4.28365 6.14931 4.54559 5.67062L4.53966 5.68083C4.80441 5.24873 5.07983 4.8234 5.36679 4.40628L5.35869 4.41735C5.64496 4.0484 5.94185 3.688 6.25012 3.338L6.23905 3.34971C6.5435 3.04791 6.85817 2.75684 7.18347 2.47871L7.16856 2.49043C7.48788 2.25893 7.81642 2.04071 8.15398 1.83814L8.13456 1.84856C8.46571 1.6898 8.80418 1.54701 9.14892 1.42227L9.12526 1.42942C9.46558 1.34545 9.81022 1.2798 10.1574 1.23357L10.1313 1.23554C10.4782 1.2284 10.8255 1.24091 11.1712 1.2727L11.1458 1.26892C11.4961 1.34069 11.8427 1.43189 12.1839 1.5408L12.1619 1.53249C12.5113 1.6846 12.8534 1.85447 13.1875 2.03963L13.17 2.02889C13.5134 2.26132 13.847 2.50901 14.1708 2.76937L14.1577 2.75798C14.4897 3.06907 14.8105 3.39272 15.1206 3.72665L15.1111 3.71565C15.4267 4.10229 15.7304 4.49905 16.0232 4.90405L16.0162 4.89389C16.3109 5.3519 16.5935 5.81796 16.8651 6.29059L16.8601 6.28137C17.1297 6.80572 17.3874 7.33643 17.6342 7.87235C17.8715 8.44894 18.1008 9.03886 18.3192 9.63289C18.5257 10.2644 18.7233 10.9074 18.9104 11.5536C19.0829 12.233 19.2461 12.9222 19.3988 13.6139C19.5348 14.3336 19.6611 15.0618 19.777 15.7918C19.8744 16.5436 19.9618 17.303 20.0388 18.0636C20.096 18.8393 20.1429 19.6216 20.1794 20.4045C20.1951 21.1954 20.2004 21.9921 20.1951 22.7889C20.1688 23.5861 20.1317 24.3886 20.084 25.1904C20.0154 25.9852 19.9357 26.7844 19.8453 27.5825C19.7348 28.3657 19.6128 29.153 19.4798 29.9383C19.3283 30.7013 19.1647 31.4676 18.9898 32.2314C18.7985 32.9654 18.5945 33.7022 18.379 34.4356C18.2307 34.8858 18.0758 35.3405 17.9159 35.7934C17.8295 36.0381 17.7417 36.2822 17.6524 36.5259C17.3873 37.1773 17.108 37.8304 16.8165 38.4779C16.5184 39.0768 16.2052 39.6764 15.8794 40.269C15.5513 40.8084 15.2071 41.3476 14.8501 41.8781C14.4956 42.352 14.1237 42.8244 13.739 43.2861L13.7461 43.278C13.362 43.6892 12.9661 44.0892 12.5579 44.476L12.5671 44.4679C12.1623 44.8042 11.7464 45.1269 11.3193 45.4339L11.3309 45.4262C10.9089 45.6839 10.4772 45.9254 10.0363 46.1485L10.0505 46.142C9.61467 46.3181 9.17142 46.4753 8.722 46.6119L8.73839 46.6077C8.29218 46.6995 7.84175 46.7703 7.38895 46.8192Z" fill="#191919"/>
<path d="M74.2112 15.7274C77.6923 15.7274 80.5143 18.5493 80.5143 22.0304C80.5143 25.5115 77.6923 28.3334 74.2112 28.3334C70.7302 28.3334 67.9082 25.5115 67.9082 22.0304C67.9082 18.5493 70.7302 15.7274 74.2112 15.7274Z" fill="#B12C2F"/>
</svg>
