<svg width="81" height="34" viewBox="0 0 81 34" fill="none" xmlns="http://www.w3.org/2000/svg">
<path d="M7.39481 32.8187C7.34678 32.8223 7.30214 32.8449 7.27071 32.8814C7.23928 32.918 7.22364 32.9655 7.22722 33.0135C7.2308 33.0615 7.25332 33.1062 7.28982 33.1376C7.32632 33.1691 7.37382 33.1848 7.42186 33.1813C7.42186 33.1813 7.42186 33.1813 7.42186 33.1813C7.88301 33.1475 8.34306 33.0981 8.80093 33.0335L8.81291 33.0314C9.26852 32.9359 9.72096 32.8254 10.1693 32.7003L10.1807 32.6967C10.6259 32.541 11.0661 32.3709 11.5005 32.1874L11.5109 32.1825C11.941 31.9686 12.3644 31.7414 12.7807 31.5019L12.7902 31.4961C13.2006 31.2267 13.6031 30.9454 13.9974 30.6531L14.0057 30.6465C14.3922 30.3252 14.7699 29.9932 15.1386 29.6515L15.1457 29.6445C15.5046 29.2752 15.8539 28.8966 16.1934 28.5096C16.5272 28.0896 16.8448 27.6689 17.1523 27.241C17.4157 26.8364 17.6659 26.4342 17.9081 26.0272C17.9411 25.9717 17.974 25.9161 18.0067 25.8605C18.2675 25.3686 18.5136 24.8788 18.7491 24.3839C18.9701 23.8646 19.177 23.3484 19.3733 22.8282C19.553 22.2873 19.7192 21.7505 19.8747 21.2106C20.0117 20.6542 20.136 20.1029 20.2496 19.5493C20.3434 18.9835 20.4251 18.4237 20.496 17.8625C20.5462 17.2935 20.585 16.7314 20.6131 16.1687C20.6199 15.6027 20.6161 15.0443 20.6014 14.4863C20.5656 13.9291 20.5197 13.3807 20.4631 12.8333C20.3856 12.291 20.2988 11.7583 20.2012 11.2275C20.0836 10.7056 19.9574 10.1943 19.8205 9.68588C19.6646 9.18967 19.5009 8.70529 19.3267 8.22464C19.1345 7.75918 18.9358 7.30672 18.7266 6.85904L18.722 6.84984C18.5007 6.42895 18.2695 6.01313 18.0281 5.60321L18.0222 5.59382C17.7712 5.21274 17.5106 4.83785 17.24 4.47008L17.2326 4.4606C16.9551 4.12308 16.6683 3.79294 16.3721 3.47126L16.363 3.46192C16.0622 3.17122 15.7528 2.88919 15.4347 2.61701L15.4236 2.60812C15.1032 2.36705 14.7749 2.136 14.4391 1.91617L14.4259 1.9082C14.0894 1.71911 13.7463 1.54137 13.3971 1.37612L13.3819 1.36963C13.0332 1.23441 12.6794 1.11176 12.3214 1.00262L12.3046 0.9982C11.9477 0.91828 11.5877 0.851877 11.2255 0.799586L11.2077 0.797731C10.8469 0.774001 10.4852 0.764313 10.1236 0.768833L10.1054 0.769788C9.74529 0.802495 9.38639 0.849252 9.02987 0.909779L9.01235 0.913468C8.65738 1.00213 8.30584 1.10432 7.95866 1.21938L7.94247 1.22543C7.59726 1.36878 7.25737 1.5247 6.92347 1.69229L6.90909 1.70016C6.57804 1.89617 6.25383 2.10351 5.93687 2.32115L5.92449 2.33027C5.61173 2.57625 5.30696 2.83218 5.01032 3.09701L4.99993 3.10688C4.70926 3.39954 4.42735 3.70075 4.1542 4.00952L4.14565 4.01976C3.88047 4.35533 3.62458 4.6981 3.37784 5.04718L3.37093 5.05754C3.13429 5.43181 2.90725 5.81204 2.68959 6.19744L2.6841 6.20776C2.47865 6.61617 2.28296 7.0294 2.09678 7.44679L2.09252 7.45698C1.92051 7.89467 1.75832 8.33615 1.60572 8.78085L1.60252 8.7909C1.4658 9.25275 1.33891 9.71746 1.22163 10.1845L1.21937 10.1944C1.11939 10.6751 1.0292 11.1579 0.948628 11.6421C0.884982 12.1461 0.832512 12.6414 0.789646 13.1375C0.765145 13.6493 0.750969 14.1518 0.7464 14.6543C0.761199 15.1684 0.785513 15.6725 0.819423 16.176C0.873292 16.6869 0.935878 17.1872 1.00803 17.6861C1.10036 18.1885 1.20058 18.6795 1.31033 19.1684L1.31276 19.1783C1.44015 19.6572 1.57696 20.1337 1.72327 20.6073L1.72657 20.6172C1.88925 21.0773 2.06125 21.5342 2.24267 21.9874L2.24695 21.9974C2.44317 22.4339 2.64856 22.8664 2.86325 23.2943L2.86864 23.3044C3.09634 23.7129 3.33303 24.1164 3.57881 24.5144L3.58544 24.5246C3.84226 24.9009 4.1078 25.2713 4.38215 25.6352L4.39017 25.6453C4.67349 25.9856 4.96517 26.3191 5.26522 26.645L5.27479 26.6549C5.58176 26.9559 5.89659 27.249 6.21919 27.5336L6.23044 27.543C6.55802 27.8017 6.89278 28.0516 7.2345 28.2918L7.2475 28.3004C7.59245 28.5144 7.9437 28.7185 8.30088 28.9119L8.31559 28.9193C8.6745 29.0865 9.03861 29.2428 9.40738 29.3876L9.42364 29.3934C9.79295 29.5121 10.1661 29.6192 10.5425 29.7141L10.56 29.7179C10.9359 29.7871 11.3143 29.8441 11.6941 29.8885L11.7123 29.89C12.0911 29.9091 12.4706 29.9156 12.8499 29.9096L12.8682 29.9086C13.2459 29.8776 13.6225 29.834 13.9973 29.7782L14.0152 29.7749C14.3877 29.6943 14.7575 29.6016 15.124 29.4971L15.1409 29.4917C15.5043 29.3628 15.8636 29.2224 16.2182 29.0712L16.2338 29.064C16.5843 28.8886 16.9294 28.7027 17.2688 28.5069L17.2827 28.4982C17.6168 28.2788 17.9445 28.0498 18.2655 27.812L18.2778 27.8024C18.592 27.5418 18.8992 27.2728 19.199 26.9959L19.2096 26.9856C19.5011 26.6873 19.7849 26.3815 20.061 26.069L20.0699 26.0583C20.3359 25.7259 20.5939 25.3872 20.8438 25.0427L20.8513 25.0317C21.0895 24.6694 21.3194 24.3016 21.5411 23.929L21.5473 23.918C21.7557 23.53 21.9557 23.1376 22.1472 22.7411L22.1523 22.73C22.3293 22.321 22.4978 21.9084 22.6578 21.4925L22.6618 21.4814C22.8062 21.056 22.942 20.6278 23.0694 20.1971L23.0724 20.186C23.1832 19.7492 23.2855 19.3102 23.3794 18.8695L23.3815 18.8583C23.4583 18.4149 23.5267 17.9701 23.5865 17.524L23.5878 17.5128C23.6304 17.0678 23.6647 16.6219 23.6905 16.1755L23.6909 16.1642C23.6997 15.7223 23.7002 15.2803 23.6921 14.8383L23.6917 14.8268C23.6672 14.3929 23.6344 13.9594 23.5932 13.5267L23.5918 13.515C23.535 13.0937 23.47 12.6734 23.3965 12.2545L23.3942 12.2425C23.3063 11.8382 23.2103 11.4355 23.1059 11.035L23.1024 11.0226C22.9851 10.6395 22.8598 10.2586 22.726 9.88066L22.7212 9.86796C22.5763 9.50985 22.4235 9.15479 22.2623 8.80338L22.2559 8.79034C22.0856 8.46082 21.9074 8.13515 21.721 7.81402L21.7128 7.80071C21.5193 7.503 21.3182 7.21002 21.1091 6.92255L21.0987 6.90913C20.8845 6.64609 20.663 6.38874 20.4339 6.13796L20.421 6.12473C20.1888 5.89887 19.9496 5.67974 19.7035 5.46829L19.6879 5.45573C19.4403 5.2692 19.1865 5.09049 18.9266 4.9206L18.9081 4.90937C18.648 4.764 18.3828 4.62755 18.1126 4.50096L18.0911 4.4919C17.8218 4.38918 17.5483 4.29639 17.2716 4.21429L17.2478 4.20827C16.9723 4.14934 16.6943 4.1011 16.4148 4.06406L16.3896 4.06176C16.1115 4.0473 15.8327 4.04394 15.5542 4.0518L15.5288 4.05356C15.2518 4.08367 14.976 4.12483 14.7023 4.1768L14.678 4.18244C14.4059 4.25655 14.1367 4.34123 13.8712 4.43592L13.849 4.44482C13.5854 4.5617 13.3263 4.68832 13.0722 4.82389L13.0527 4.83521C12.8012 4.99303 12.5554 5.1595 12.3154 5.33378L12.2989 5.34669C12.0626 5.54306 11.8328 5.74694 11.6096 5.95749L11.5959 5.97128C11.3777 6.20342 11.1666 6.44195 10.9625 6.68606L10.9513 6.7002C10.7538 6.965 10.5637 7.23511 10.3808 7.50984L10.3719 7.524C10.1973 7.81806 10.0302 8.11644 9.87047 8.41856L9.86351 8.43256C9.71366 8.75222 9.57143 9.07533 9.43664 9.4014L9.43134 9.41514C9.30787 9.75655 9.19205 10.1006 9.08369 10.447L9.07981 10.4604C8.98403 10.8196 8.89588 11.1807 8.81518 11.5434L8.81254 11.5566C8.74544 11.9294 8.68591 12.3035 8.63383 12.6785L8.6323 12.6915C8.59454 13.0737 8.56432 13.4566 8.54151 13.8398L8.54101 13.8527C8.53296 14.24 8.53237 14.6274 8.53918 15.0147L8.53966 15.0274C8.56134 15.4156 8.59043 15.8033 8.6269 16.1904L8.62836 16.2031C8.6795 16.5879 8.73799 16.9718 8.80383 17.3544L8.80629 17.3671C8.88631 17.7445 8.97361 18.1204 9.06823 18.4944L9.07175 18.5072C9.17977 18.8732 9.295 19.2371 9.41752 19.5985L9.42219 19.6114C9.55706 19.9621 9.69906 20.3102 9.84827 20.6552L9.85421 20.6682C10.0145 21.0001 10.1819 21.3287 10.3563 21.6537L10.3636 21.6666C10.5478 21.9764 10.7387 22.2822 10.9366 22.5836L10.9456 22.5965C11.1516 22.881 11.3643 23.1609 11.5837 23.4356L11.5944 23.4483C11.8204 23.7048 12.0527 23.956 12.2913 24.2011L12.3039 24.2134C12.5476 24.4394 12.7972 24.6593 13.0526 24.8724L13.0673 24.8839C13.3262 25.0773 13.5906 25.2637 13.8601 25.4425L13.8769 25.453C14.1487 25.6118 14.4251 25.763 14.7059 25.9059L14.7247 25.9147C15.0067 26.0376 15.2924 26.1521 15.5815 26.2576L15.6021 26.2644C15.8913 26.3502 16.1834 26.427 16.4777 26.4944L16.4996 26.4986C16.7933 26.5465 17.0887 26.5851 17.385 26.614L17.4077 26.6155C17.7028 26.6251 17.9983 26.6253 18.2935 26.616L18.3162 26.6145C18.6097 26.5862 18.9023 26.5484 19.1934 26.5014L19.2154 26.4971C19.5041 26.4314 19.7908 26.3566 20.0748 26.273L20.0956 26.2661C20.3766 26.1642 20.6545 26.0537 20.9288 25.935L20.9478 25.9261C21.2183 25.7895 21.4847 25.645 21.7467 25.4931L21.7638 25.4825C22.021 25.3133 22.2734 25.137 22.5209 24.954L22.5359 24.9422C22.7775 24.7427 23.0137 24.5369 23.2445 24.3253L23.2576 24.3127C23.4813 24.0856 23.6994 23.853 23.9116 23.6154L23.9228 23.6023C24.1268 23.3506 24.3249 23.0941 24.517 22.8333L24.5263 22.8199C24.709 22.5467 24.8856 22.2695 25.0561 21.9886L25.0638 21.9751C25.2238 21.6837 25.3777 21.389 25.5252 21.0913L25.5316 21.0777C25.6678 20.7717 25.7978 20.4629 25.9215 20.1516L25.9266 20.1381C26.0382 19.8209 26.1436 19.5016 26.2428 19.1804L26.2467 19.1668C26.3332 18.8422 26.4136 18.5159 26.4876 18.1882L26.4904 18.1745C26.5516 17.8461 26.6067 17.5165 26.6555 17.186L26.6572 17.1722C26.6932 16.8436 26.723 16.5143 26.7465 16.1844L26.7472 16.1705C26.7581 15.8453 26.763 15.5198 26.7616 15.1942L26.7613 15.1801C26.7478 14.8617 26.7283 14.5435 26.7025 14.2256L26.701 14.2112C26.6639 13.903 26.6208 13.5954 26.5715 13.2887L26.5688 13.2739C26.5091 12.9791 26.4435 12.6853 26.3716 12.3929L26.3675 12.3777C26.2865 12.0991 26.1996 11.8221 26.1064 11.5471L26.1007 11.5314C25.9998 11.2719 25.893 11.0145 25.7801 10.7596L25.7725 10.7434C25.6532 10.5055 25.5282 10.2703 25.3971 10.0381L25.3872 10.0216C25.2513 9.80746 25.1099 9.59661 24.9624 9.38962L24.9498 9.37285C24.7991 9.18451 24.643 9.00013 24.4813 8.82042L24.4654 8.80383C24.3018 8.64299 24.1332 8.4869 23.9592 8.33634L23.9397 8.32055C23.7652 8.18872 23.5861 8.06248 23.4023 7.94267L23.3789 7.92859C23.1956 7.82709 23.0083 7.73205 22.8174 7.64427L22.7902 7.63306C22.6003 7.563 22.4074 7.5002 22.2121 7.44533L22.1818 7.4382C21.9879 7.40043 21.7922 7.37055 21.5954 7.34895L21.5635 7.34683C21.3683 7.34183 21.1727 7.34502 20.9776 7.35645L20.9458 7.35969C20.7522 7.38741 20.5597 7.42321 20.3692 7.46684L20.3392 7.47504C20.1502 7.53482 19.9638 7.60219 19.7805 7.67665L19.7536 7.68886C19.5721 7.77944 19.3942 7.87686 19.2204 7.98049L19.1972 7.99548C19.0258 8.11516 18.8587 8.24079 18.6963 8.3717L18.6771 8.38834C18.5178 8.53508 18.3635 8.68686 18.2142 8.84304L18.1986 8.86043C18.0535 9.03196 17.9136 9.20766 17.7789 9.38696L17.7665 9.40452C17.6371 9.59839 17.5132 9.79565 17.3945 9.99581L17.3849 10.0132C17.2726 10.2268 17.1659 10.4431 17.0645 10.6617L17.0571 10.6787C16.9632 10.9093 16.8748 11.1421 16.7917 11.3766L16.7862 11.3931C16.7116 11.638 16.6425 11.8844 16.5786 12.1321L16.5749 12.1482C16.5203 12.4043 16.4711 12.6616 16.4272 12.9197L16.4249 12.9354C16.3909 13.1999 16.3623 13.4651 16.3389 13.7307L16.3379 13.7461C16.3248 14.016 16.317 14.2861 16.3144 14.5562L16.3146 14.5714C16.3225 14.8436 16.3357 15.1157 16.354 15.3874L16.3553 15.4024C16.3841 15.6741 16.4181 15.9452 16.4573 16.2155L16.4598 16.2304C16.5092 16.4985 16.5637 16.7657 16.6233 17.0317L16.627 17.0466C16.6964 17.3083 16.7709 17.5688 16.8505 17.8277L16.8554 17.8425C16.9441 18.0952 17.0379 18.3462 17.1367 18.5952L17.1429 18.6101C17.2501 18.8511 17.3621 19.09 17.4792 19.3266L17.4869 19.3414C17.6114 19.5684 17.7407 19.7928 17.8749 20.0144L17.8843 20.0291C18.0248 20.2398 18.1701 20.4476 18.3201 20.6519L18.3313 20.6665C18.4866 20.8589 18.6464 21.0478 18.8108 21.2329L18.824 21.247C18.9925 21.4193 19.1653 21.5876 19.3424 21.7515L19.3577 21.765C19.5379 21.9155 19.722 22.0616 19.9101 22.2028L19.9276 22.2152C20.1177 22.3426 20.3113 22.4651 20.5084 22.5822L20.5281 22.5931C20.7263 22.6963 20.9276 22.7941 21.1317 22.886L21.1534 22.8949C21.3578 22.973 21.5647 23.0452 21.7737 23.1112L21.797 23.1178C22.0057 23.1701 22.2161 23.2162 22.4277 23.2558L22.4522 23.2596C22.663 23.2859 22.8747 23.3057 23.0869 23.3189L23.1119 23.3197C23.3226 23.3199 23.5335 23.3135 23.7439 23.3007L23.7687 23.2984C23.9773 23.2728 24.1851 23.2408 24.3918 23.2026L24.4157 23.1974C24.62 23.1467 24.8228 23.0899 25.0236 23.0272L25.0462 23.0194C25.2441 22.9447 25.4399 22.8642 25.6332 22.7783L25.6539 22.7684C25.8436 22.6709 26.0307 22.5682 26.2147 22.4605L26.2333 22.4489C26.4132 22.3303 26.5899 22.207 26.7632 22.0792L26.7797 22.0663C26.9482 21.9284 27.1131 21.7862 27.2744 21.6401L27.2888 21.6264C27.4445 21.4711 27.5965 21.3121 27.7446 21.1497L27.757 21.1354C27.8988 20.9648 28.0368 20.7911 28.1708 20.6144L28.1813 20.5998C28.3083 20.4162 28.4314 20.2299 28.5505 20.0411L28.5593 20.0263C28.6708 19.832 28.7783 19.6354 28.8817 19.4367L28.889 19.4219C28.9844 19.2193 29.0758 19.0148 29.1631 18.8086L29.1691 18.7936C29.248 18.5851 29.3229 18.3751 29.3938 18.1636L29.3985 18.1487C29.4608 17.9367 29.5192 17.7235 29.5735 17.5092L29.577 17.4941C29.6226 17.281 29.6644 17.067 29.7022 16.8523L29.7046 16.8371C29.7338 16.6252 29.7592 16.4128 29.7806 16.1998L29.7818 16.1844C29.795 15.9761 29.8043 15.7674 29.8097 15.5586L29.8098 15.5429C29.8074 15.3403 29.8013 15.1376 29.7911 14.935L29.79 14.9189C29.7727 14.7241 29.7517 14.5294 29.7267 14.3351L29.7242 14.3185C29.6928 14.1334 29.6577 13.9487 29.6187 13.7647L29.6146 13.7474C29.57 13.5738 29.5217 13.4009 29.4695 13.2289L29.4636 13.211C29.4068 13.0504 29.3463 12.8908 29.2819 12.7326L29.2737 12.7138C29.2058 12.5678 29.1342 12.423 29.0587 12.2799L29.0477 12.2605C28.9697 12.1301 28.8881 12.0014 28.8026 11.8749L28.7882 11.8549C28.7013 11.7413 28.6108 11.6299 28.5165 11.5212L28.4979 11.5011C28.4032 11.4053 28.305 11.3121 28.2032 11.2223L28.1796 11.203C28.0782 11.1258 27.9736 11.0519 27.8657 10.982L27.8367 10.9648C27.7298 10.9072 27.6202 10.8535 27.5079 10.8045L27.4736 10.7913C27.3627 10.754 27.2498 10.7213 27.1352 10.6939L27.0968 10.6866C26.9838 10.6704 26.8697 10.6593 26.7551 10.6538L26.7149 10.6537C26.602 10.6589 26.4892 10.6695 26.3772 10.6853L26.3381 10.6928C26.2277 10.7191 26.1186 10.7505 26.0114 10.7867L25.9761 10.8005C25.8705 10.847 25.7672 10.898 25.6665 10.9531L25.6365 10.9712C25.5377 11.0364 25.4418 11.1054 25.349 11.1777L25.3246 11.1983C25.234 11.2805 25.1467 11.3658 25.0627 11.4537L25.0435 11.4753C24.9622 11.5727 24.8843 11.6727 24.8099 11.7747L24.7952 11.7961C24.724 11.9072 24.6563 12.0201 24.592 12.1346L24.581 12.1556C24.5207 12.2785 24.4638 12.4028 24.4102 12.5283L24.4022 12.5484C24.3531 12.6815 24.3075 12.8155 24.2651 12.9504L24.2596 12.9697C24.2224 13.1112 24.1884 13.2533 24.1577 13.396L24.1542 13.4145C24.129 13.5626 24.1072 13.7111 24.0884 13.8599L24.0866 13.8777C24.0738 14.0307 24.0642 14.1838 24.0577 14.3369L24.0573 14.3542C24.057 14.5102 24.0597 14.6662 24.0656 14.822L24.0665 14.8388C24.0786 14.9962 24.0937 15.1532 24.1119 15.3099L24.1141 15.3264C24.1385 15.4833 24.1659 15.6397 24.1962 15.7956L24.1997 15.8117C24.2361 15.9665 24.2755 16.1206 24.3178 16.2739L24.3226 16.2899C24.3706 16.441 24.4216 16.5911 24.4755 16.7402L24.4816 16.756C24.5408 16.9018 24.6029 17.0464 24.6679 17.1898L24.6754 17.2054C24.7452 17.3444 24.8179 17.482 24.8933 17.6182L24.9023 17.6336C24.9821 17.7645 25.0646 17.8938 25.1499 18.0213L25.1605 18.0364C25.2494 18.158 25.341 18.2777 25.4353 18.3954L25.4477 18.4101C25.5449 18.5211 25.6448 18.6301 25.7471 18.7368L25.7613 18.7509C25.8661 18.8505 25.9732 18.9478 26.0827 19.0425L26.0988 19.0557C26.21 19.143 26.3235 19.2277 26.439 19.3096L26.457 19.3217C26.5737 19.396 26.6924 19.4674 26.8129 19.5358L26.8327 19.5464C26.9538 19.607 27.0765 19.6647 27.2008 19.7191L27.2223 19.7277C27.3466 19.7744 27.4722 19.8179 27.5991 19.8579L27.6219 19.8644C27.7482 19.8968 27.8755 19.9259 28.0037 19.9515L28.0274 19.9555C28.1545 19.9737 28.2823 19.9884 28.4104 19.9995L28.4345 20.0009C28.5613 20.005 28.6883 20.0056 28.8152 20.0026L28.8392 20.0014C28.9643 19.9916 29.0893 19.9784 29.2139 19.9619L29.2372 19.9581C29.3596 19.9351 29.4814 19.9088 29.6025 19.8793L29.6247 19.8732C29.7432 19.8376 29.8609 19.799 29.9775 19.7574L29.9983 19.7493C30.112 19.7021 30.2245 19.652 30.3358 19.5992L30.3549 19.5895C30.4629 19.5316 30.5696 19.4712 30.6747 19.4082L30.692 19.3973C30.7936 19.3299 30.8937 19.2601 30.9921 19.1881L31.0076 19.1762C31.1021 19.1005 31.1951 19.0227 31.2862 18.9428L31.3 18.9303C31.387 18.8474 31.4723 18.7627 31.5558 18.6763L31.5679 18.6633C31.647 18.5746 31.7243 18.4843 31.7999 18.3925L31.8105 18.3792C31.8814 18.286 31.9506 18.1914 32.018 18.0955L32.0271 18.082C32.0898 17.9856 32.1507 17.888 32.2099 17.7892L32.2177 17.7756C32.272 17.6772 32.3246 17.5779 32.3756 17.4775L32.3822 17.4638C32.4282 17.3647 32.4727 17.2648 32.5155 17.1641L32.521 17.1503C32.559 17.0517 32.5954 16.9525 32.6302 16.8524L32.6347 16.8386C32.6649 16.7417 32.6935 16.6442 32.7205 16.546L32.7242 16.532C32.7468 16.4378 32.768 16.3432 32.7877 16.248L32.7904 16.2336C32.806 16.1432 32.8202 16.0524 32.8329 15.961L32.8346 15.9463C32.8436 15.8605 32.8513 15.7743 32.8575 15.6878L32.8583 15.6726C32.8612 15.5922 32.8629 15.5114 32.863 15.4303L32.8628 15.4144C32.8602 15.34 32.8564 15.2653 32.8511 15.1904L32.8496 15.1734C32.8421 15.1056 32.8334 15.0375 32.8232 14.9692L32.82 14.9508C32.8082 14.8899 32.7952 14.8288 32.7805 14.7674L32.7751 14.7471C32.7595 14.6933 32.7425 14.6393 32.7238 14.585L32.7151 14.562C32.6961 14.5154 32.6755 14.4685 32.6527 14.4212L32.6389 14.3947C32.6164 14.355 32.5921 14.315 32.565 14.2746L32.5424 14.2439C32.5159 14.2109 32.487 14.1776 32.4544 14.1443L32.4166 14.1099C32.3845 14.0838 32.3489 14.058 32.3086 14.0333L32.2466 14.0019C32.2063 13.9853 32.1617 13.9705 32.113 13.9599L32.0255 13.9499C31.9778 13.9491 31.9279 13.9532 31.879 13.9627L31.791 13.9895C31.746 14.0084 31.7041 14.0315 31.6665 14.0567L31.6066 14.1049C31.5736 14.1364 31.5451 14.1689 31.5202 14.2011L31.488 14.2488C31.4663 14.2858 31.448 14.3223 31.4322 14.3579L31.4166 14.398C31.4032 14.438 31.3922 14.4773 31.3828 14.5157L31.3761 14.5485C31.3691 14.5912 31.3638 14.6332 31.3598 14.6744L31.358 14.7019C31.3564 14.747 31.3563 14.7915 31.3572 14.8354L31.3584 14.8591C31.362 14.9065 31.3667 14.9532 31.3726 14.9994L31.3757 15.0204C31.3843 15.0695 31.3939 15.118 31.4046 15.1659L31.4093 15.1851C31.4228 15.2353 31.4373 15.2849 31.4527 15.334L31.4588 15.3518C31.4771 15.4024 31.4964 15.4526 31.5167 15.5021L31.5239 15.5188C31.547 15.5694 31.5711 15.6193 31.5961 15.6686L31.6045 15.6844C31.6323 15.7341 31.6609 15.7831 31.6905 15.8315L31.7002 15.8466C31.7323 15.8947 31.7654 15.9422 31.7994 15.9889L31.8103 16.0032C31.8466 16.0492 31.8839 16.0944 31.922 16.1389L31.9341 16.1524C31.9744 16.1956 32.0155 16.238 32.0574 16.2796L32.0709 16.2923C32.1146 16.3322 32.1593 16.3712 32.2047 16.4092L32.2194 16.421C32.2663 16.4571 32.314 16.4922 32.3624 16.5263L32.3783 16.537C32.428 16.5688 32.4783 16.5996 32.5293 16.6293L32.5464 16.6388C32.5982 16.666 32.6507 16.6922 32.7037 16.7172L32.7217 16.7252C32.7752 16.7476 32.8293 16.7689 32.8839 16.789L32.9026 16.7955C32.9573 16.8129 33.0124 16.8292 33.0679 16.8442L33.0872 16.849C33.1424 16.8614 33.198 16.8726 33.2538 16.8825L33.2733 16.8856C33.3285 16.8929 33.384 16.8992 33.4396 16.9042L33.459 16.9055C33.5136 16.908 33.5684 16.9094 33.6233 16.9096L33.6422 16.9093C33.6958 16.9073 33.7493 16.9041 33.8029 16.8999L33.8211 16.898C33.8731 16.8918 33.925 16.8845 33.9768 16.8761L33.994 16.873C34.0438 16.863 34.0936 16.852 34.1433 16.84L34.1593 16.8358C34.2067 16.8226 34.2539 16.8084 34.301 16.7934L34.3157 16.7884C34.3603 16.7725 34.4047 16.7558 34.449 16.7383L34.4622 16.7328C34.5037 16.7149 34.545 16.6963 34.5862 16.677L34.5978 16.6713C34.636 16.652 34.6741 16.6322 34.712 16.6118L34.722 16.6062C34.7568 16.5863 34.7914 16.566 34.826 16.5452L34.8862 16.5016C35.197 16.2834 35.9161 16.1526 36.505 16.1666C40.995 16.1805 45.4952 16.1818 49.9894 16.1873C54.3436 16.1915 58.7191 16.1957 63.061 16.1974C63.1896 16.1975 63.3129 16.1464 63.4037 16.0554C63.4946 15.9644 63.5455 15.8409 63.5454 15.7121C63.5453 15.5834 63.4941 15.46 63.403 15.3691C63.312 15.2783 63.1887 15.2275 63.0601 15.2277C63.0601 15.2277 63.0601 15.2277 63.0601 15.2277C58.7192 15.2361 54.3432 15.242 49.9893 15.2479C45.4975 15.2529 40.9872 15.2619 36.513 15.2585C35.784 15.2789 35.1001 15.2775 34.2984 15.8155L34.3586 15.7719C34.3303 15.7891 34.3017 15.8059 34.2728 15.8226L34.2828 15.817C34.2523 15.8335 34.2215 15.8497 34.1903 15.8655L34.202 15.8598C34.1694 15.8752 34.1364 15.8901 34.103 15.9046L34.1162 15.8992C34.0816 15.913 34.0465 15.9262 34.0111 15.939L34.0258 15.934C33.9892 15.9458 33.9522 15.9569 33.915 15.9674L33.931 15.9632C33.8927 15.9726 33.8541 15.9812 33.8152 15.9891L33.8325 15.986C33.7926 15.9925 33.7526 15.9982 33.7124 16.0031L33.7306 16.0013C33.6896 16.0047 33.6484 16.0072 33.6071 16.0088L33.626 16.0085C33.5841 16.0084 33.5421 16.0075 33.5 16.0056L33.5193 16.0069C33.4768 16.0032 33.4343 15.9985 33.3918 15.9929L33.4113 15.996C33.3685 15.9884 33.3259 15.9799 33.2833 15.9705L33.3026 15.9752C33.2599 15.9638 33.2175 15.9514 33.1753 15.938L33.194 15.9444C33.1519 15.929 33.1101 15.9127 33.0685 15.8954L33.0865 15.9034C33.0453 15.884 33.0045 15.8638 32.9641 15.8427L32.9811 15.8521C32.9413 15.829 32.9019 15.805 32.8629 15.7801L32.8789 15.7908C32.8408 15.7641 32.8032 15.7366 32.7662 15.7083L32.7809 15.7201C32.745 15.6901 32.7097 15.6594 32.675 15.628L32.6884 15.6407C32.6551 15.6079 32.6224 15.5743 32.5904 15.5402L32.6026 15.5537C32.5722 15.5185 32.5425 15.4826 32.5136 15.4462L32.5245 15.4605C32.4974 15.4234 32.471 15.3858 32.4455 15.3478L32.4551 15.3628C32.4316 15.3245 32.4088 15.2858 32.3869 15.2468L32.3954 15.2626C32.3756 15.2238 32.3567 15.1848 32.3386 15.1455L32.3458 15.1622C32.33 15.1237 32.315 15.0851 32.3009 15.0463L32.3069 15.0641C32.295 15.0267 32.284 14.9893 32.2739 14.952L32.2786 14.9712C32.2707 14.9359 32.2636 14.9008 32.2575 14.8658L32.2606 14.8869C32.2565 14.8546 32.2532 14.8227 32.2508 14.7912L32.2519 14.8149C32.2512 14.7867 32.2513 14.7591 32.2522 14.7321L32.2504 14.7596C32.2526 14.7366 32.2554 14.7145 32.2588 14.6935L32.2521 14.7264C32.2561 14.7098 32.2604 14.6946 32.2649 14.681L32.2494 14.721C32.2533 14.7121 32.257 14.705 32.2599 14.7L32.2277 14.7477C32.2283 14.7469 32.2275 14.748 32.2246 14.7508L32.1647 14.7989C32.1579 14.8035 32.1486 14.8088 32.1377 14.8133L32.0497 14.8401C32.0364 14.8427 32.0229 14.8437 32.0114 14.8435L31.9239 14.8334C31.9146 14.8314 31.9086 14.8291 31.9057 14.8278L31.8437 14.7964C31.8447 14.797 31.8487 14.7995 31.8542 14.804L31.8164 14.7696C31.8253 14.7786 31.8354 14.79 31.8461 14.8033L31.8235 14.7725C31.8363 14.7915 31.8493 14.8126 31.8622 14.8352L31.8483 14.8087C31.8624 14.8378 31.876 14.8684 31.889 14.9003L31.8804 14.8773C31.8938 14.9158 31.9064 14.9556 31.9183 14.9963L31.9129 14.976C31.9244 15.0234 31.9349 15.0717 31.9445 15.1208L31.9413 15.1024C31.9498 15.1581 31.9571 15.2145 31.9635 15.2714L31.962 15.2544C31.9666 15.3177 31.97 15.3814 31.9723 15.4456L31.9721 15.4296C31.9721 15.4997 31.9708 15.5701 31.9684 15.6408L31.9692 15.6256C31.964 15.7017 31.9574 15.778 31.9495 15.8544L31.9513 15.8397C31.9402 15.9209 31.9277 16.0022 31.9139 16.0835L31.9166 16.0692C31.8992 16.1545 31.8803 16.2398 31.86 16.325L31.8636 16.3109C31.8394 16.3995 31.8137 16.4877 31.7866 16.5757L31.7911 16.5618C31.7599 16.6524 31.727 16.7425 31.6927 16.8322L31.6983 16.8184C31.6597 16.9099 31.6196 17.0007 31.5779 17.091L31.5845 17.0773C31.5385 17.1684 31.4909 17.2588 31.4417 17.3484L31.4496 17.3348C31.3961 17.4244 31.3411 17.5131 31.2844 17.6008L31.2935 17.5873C31.2327 17.6742 31.1702 17.7599 31.1062 17.8445L31.1167 17.8312C31.0487 17.9141 30.9791 17.9958 30.9078 18.076L30.9199 18.063C30.845 18.1408 30.7685 18.2171 30.6905 18.2919L30.7042 18.2793C30.6228 18.3509 30.5398 18.4207 30.4553 18.4887L30.4708 18.4769C30.3833 18.5411 30.2943 18.6035 30.204 18.6637L30.2213 18.6528C30.1283 18.7088 30.0339 18.7626 29.9383 18.8141L29.9574 18.8044C29.8594 18.8512 29.7602 18.8956 29.66 18.9375L29.6808 18.9295C29.5785 18.9663 29.4753 19.0004 29.3712 19.0319L29.3934 19.0259C29.2876 19.0519 29.181 19.0752 29.0739 19.0956L29.0972 19.0918C28.9885 19.1065 28.8794 19.1183 28.77 19.1271L28.7939 19.1258C28.6832 19.1287 28.5723 19.1284 28.4614 19.1252L28.4855 19.1266C28.3735 19.1171 28.2617 19.1045 28.1502 19.0888L28.1739 19.0928C28.0615 19.0707 27.9497 19.0454 27.8385 19.0172L27.8613 19.0237C27.7495 18.9887 27.6386 18.9506 27.5286 18.9096L27.5501 18.9183C27.4398 18.8704 27.3308 18.8195 27.223 18.7657L27.2428 18.7763C27.1352 18.7156 27.029 18.652 26.9244 18.5857L26.9424 18.5978C26.8384 18.5245 26.7362 18.4485 26.6357 18.37L26.6518 18.3833C26.5526 18.2978 26.4554 18.21 26.3601 18.1198L26.3743 18.1339C26.2809 18.037 26.1897 17.9379 26.1006 17.8367L26.113 17.8514C26.0264 17.7439 25.9422 17.6344 25.8603 17.523L25.8709 17.5381C25.7922 17.421 25.7159 17.3021 25.6421 17.1816L25.6511 17.197C25.581 17.0714 25.5136 16.9443 25.4486 16.8158L25.4561 16.8314C25.3956 16.6987 25.3377 16.5647 25.2824 16.4295L25.2885 16.4454C25.2381 16.3069 25.1904 16.1675 25.1454 16.0272L25.1502 16.0432C25.1105 15.9007 25.0735 15.7574 25.0393 15.6134L25.0428 15.6296C25.0142 15.4847 24.9884 15.3392 24.9654 15.1933L24.9677 15.2098C24.9505 15.0641 24.9361 14.9182 24.9245 14.7721L24.9255 14.7889C24.9197 14.6443 24.9168 14.4997 24.9168 14.3552L24.9165 14.3725C24.9222 14.2309 24.9307 14.0894 24.9422 13.9483L24.9403 13.9662C24.9572 13.8293 24.977 13.6929 24.9997 13.557L24.9962 13.5756C25.024 13.4452 25.0546 13.3156 25.0881 13.1869L25.0826 13.2062C25.1206 13.0841 25.1615 12.9631 25.2053 12.8434L25.1973 12.8635C25.2449 12.7513 25.2953 12.6406 25.3486 12.5315L25.3376 12.5525C25.3939 12.4518 25.4528 12.3529 25.5146 12.2561L25.4999 12.2776C25.5638 12.1897 25.6302 12.104 25.6992 12.0209L25.68 12.0424C25.7504 11.9684 25.823 11.8971 25.8979 11.8289L25.8735 11.8494C25.9491 11.7902 26.0267 11.7342 26.1061 11.6815L26.0761 11.6996C26.1558 11.6558 26.237 11.6154 26.3197 11.5788L26.2844 11.5925C26.3673 11.5643 26.4513 11.5399 26.5361 11.5195L26.4971 11.5269C26.5826 11.5146 26.6686 11.5064 26.7549 11.5022L26.7147 11.5022C26.8023 11.5062 26.8898 11.5145 26.9771 11.5268L26.9386 11.5195C27.0277 11.5406 27.1162 11.5659 27.2039 11.5952L27.1695 11.582C27.2593 11.6209 27.3478 11.664 27.435 11.7107L27.4059 11.6936C27.495 11.751 27.5822 11.8122 27.6675 11.8769L27.6439 11.8576C27.7307 11.9337 27.815 12.0134 27.8971 12.096L27.8784 12.0759C27.961 12.1706 28.0408 12.2684 28.1179 12.3688L28.1035 12.3487C28.18 12.4614 28.2535 12.5767 28.3241 12.6942L28.3132 12.6747C28.382 12.8044 28.4476 12.9362 28.5101 13.0698L28.5019 13.0511C28.5615 13.1965 28.6177 13.3437 28.6707 13.4923L28.6647 13.4744C28.7137 13.6341 28.759 13.7951 28.8011 13.9573L28.797 13.94C28.834 14.1123 28.8674 14.2856 28.8973 14.4597L28.8948 14.443C28.9188 14.6261 28.939 14.8097 28.9558 14.9939L28.9547 14.9777C28.9647 15.1694 28.971 15.3615 28.9737 15.5537L28.9738 15.538C28.9691 15.7362 28.9607 15.9345 28.9487 16.1327L28.9499 16.1173C28.93 16.3199 28.9063 16.5222 28.8789 16.7241L28.8813 16.7089C28.8458 16.9135 28.8065 17.1175 28.7634 17.3208L28.7669 17.3057C28.7157 17.5099 28.6605 17.7133 28.6016 17.9155L28.6063 17.9006C28.5392 18.1021 28.4683 18.3023 28.3936 18.5012L28.3995 18.4862C28.3169 18.6826 28.2304 18.8774 28.1401 19.0704L28.1475 19.0556C28.0497 19.2445 27.948 19.4314 27.8426 19.6162L27.8514 19.6014C27.739 19.7806 27.6229 19.9574 27.5029 20.1316L27.5135 20.117C27.3872 20.2843 27.2573 20.4487 27.1237 20.6101L27.1361 20.5959C26.9969 20.7492 26.8542 20.8992 26.7081 21.0457L26.7224 21.032C26.5714 21.1694 26.4171 21.303 26.2595 21.4327L26.276 21.4199C26.1143 21.5396 25.9496 21.6552 25.782 21.7662L25.8006 21.7546C25.6296 21.8552 25.456 21.9511 25.2798 22.0421L25.3005 22.0322C25.1216 22.1122 24.9404 22.1872 24.7573 22.2568L24.7798 22.249C24.5944 22.3073 24.4073 22.3602 24.2188 22.4074L24.2427 22.4022C24.0524 22.4379 23.8609 22.4678 23.6688 22.4919L23.6936 22.4896C23.4998 22.5018 23.3057 22.5081 23.1115 22.5084L23.1365 22.5092C22.9411 22.4974 22.7459 22.4796 22.5514 22.4559L22.5759 22.4596C22.3804 22.4235 22.186 22.3814 21.9928 22.3334L22.0162 22.34C21.8225 22.2793 21.6305 22.2129 21.4405 22.1408L21.4622 22.1498C21.2721 22.0647 21.0844 21.9741 20.8993 21.8783L20.919 21.8892C20.7345 21.7802 20.553 21.666 20.3745 21.5469L20.392 21.5593C20.2151 21.4271 20.0415 21.2901 19.8715 21.1487L19.8868 21.1621C19.7193 21.0078 19.5556 20.8491 19.3957 20.6864L19.4089 20.7005C19.2526 20.5254 19.1005 20.3464 18.9525 20.1639L18.9637 20.1784C18.8205 19.9842 18.6816 19.7866 18.547 19.5859L18.5564 19.6007C18.4278 19.3893 18.3037 19.175 18.1841 18.9581L18.1918 18.9729C18.0792 18.7466 17.9712 18.5178 17.8679 18.2868L17.8742 18.3017C17.7787 18.0628 17.6881 17.8219 17.6023 17.5793L17.6072 17.5941C17.5301 17.3453 17.4578 17.0949 17.3904 16.8432L17.3941 16.858C17.336 16.602 17.283 16.3448 17.2348 16.0867L17.2373 16.1016C17.1989 15.8413 17.1656 15.5802 17.1372 15.3186L17.1385 15.3336C17.1202 15.0719 17.1069 14.8098 17.0987 14.5477L17.0989 14.5628C17.1007 14.3028 17.1076 14.0428 17.1196 13.7831L17.1186 13.7985C17.1405 13.5431 17.1674 13.2882 17.1995 13.034L17.1971 13.0497C17.2387 12.802 17.2853 12.5552 17.337 12.3096L17.3332 12.3257C17.3938 12.0886 17.4593 11.8529 17.5301 11.6188L17.5246 11.6353C17.6033 11.4117 17.687 11.1899 17.7758 10.9703L17.7684 10.9873C17.8641 10.7798 17.9647 10.5747 18.0704 10.3724L18.0608 10.3897C18.1722 10.2008 18.2884 10.015 18.4095 9.83259L18.3971 9.85014C18.5226 9.68213 18.6528 9.51783 18.7876 9.35774L18.772 9.37513C18.9101 9.23003 19.0525 9.08936 19.1991 8.95363L19.1798 8.97026C19.3286 8.84979 19.4812 8.73446 19.6375 8.62481L19.6144 8.6398C19.772 8.54534 19.9329 8.45674 20.0967 8.37449L20.0698 8.38669C20.2345 8.31935 20.4016 8.25852 20.5708 8.20455L20.5408 8.21276C20.7108 8.17342 20.8824 8.1411 21.0549 8.11598L21.0231 8.11922C21.1967 8.10864 21.3708 8.1054 21.5449 8.10944L21.513 8.10732C21.6885 8.12618 21.8634 8.15245 22.0371 8.18586L22.0069 8.17872C22.1825 8.22759 22.3562 8.28368 22.5278 8.34655L22.5006 8.33534C22.674 8.41454 22.8445 8.50056 23.012 8.59282L22.9886 8.57874C23.1573 8.68823 23.3224 8.80396 23.4838 8.92528L23.4642 8.90949C23.6258 9.04874 23.7831 9.19356 23.936 9.34327L23.9201 9.32668C24.072 9.49469 24.219 9.66752 24.3613 9.84457L24.3486 9.8278C24.4884 10.0231 24.6229 10.2225 24.7523 10.4254L24.7423 10.4088C24.8676 10.6295 24.9873 10.8536 25.1018 11.0806L25.0941 11.0644C25.2028 11.3082 25.3057 11.5547 25.4032 11.8036L25.3975 11.7879C25.4877 12.0523 25.572 12.3188 25.6507 12.5871L25.6466 12.5719C25.7166 12.8539 25.7807 13.1376 25.8391 13.4225L25.8364 13.4078C25.8848 13.7045 25.9272 14.0023 25.9639 14.3009L25.9624 14.2865C25.9881 14.5946 26.0078 14.9033 26.0216 15.2123L26.0212 15.1982C26.0233 15.5143 26.0193 15.8305 26.0094 16.1466L26.0102 16.1327C25.988 16.4533 25.9598 16.7735 25.9256 17.0931L25.9273 17.0793C25.8807 17.4008 25.8279 17.7214 25.7691 18.0409L25.7719 18.0273C25.7006 18.346 25.6232 18.6634 25.5398 18.9792L25.5437 18.9655C25.4481 19.2779 25.3464 19.5884 25.2387 19.8968L25.2437 19.8832C25.1244 20.1856 24.9989 20.4856 24.8673 20.7829L24.8737 20.7693C24.7313 21.0583 24.5829 21.3444 24.4285 21.6271L24.4363 21.6135C24.2719 21.8858 24.1017 22.1545 23.9256 22.4191L23.935 22.4057C23.75 22.6581 23.5594 22.9061 23.363 23.1495L23.3741 23.1364C23.1701 23.3659 22.9606 23.5904 22.7457 23.8094L22.7588 23.7968C22.5375 24.0007 22.3111 24.1989 22.0796 24.3909L22.0947 24.3791C21.858 24.5549 21.6167 24.7243 21.3709 24.8868L21.388 24.8762C21.1381 25.0219 20.8841 25.1604 20.6264 25.2913L20.6454 25.2824C20.3845 25.396 20.1202 25.5018 19.8529 25.5994L19.8737 25.5926C19.604 25.6727 19.3318 25.7444 19.0577 25.8074L19.0797 25.8031C18.8036 25.8484 18.5261 25.8848 18.2477 25.9124L18.2703 25.9109C17.9904 25.9204 17.71 25.9209 17.43 25.9123L17.4526 25.9138C17.1713 25.887 16.8908 25.851 16.6117 25.8062L16.6336 25.8105C16.3537 25.747 16.0757 25.6746 15.8001 25.5936L15.8207 25.6004C15.5449 25.5004 15.272 25.3919 15.0026 25.2752L15.0214 25.284C14.7526 25.148 14.4877 25.004 14.227 24.8524L14.2438 24.8629C13.9848 24.6919 13.7306 24.5135 13.4812 24.3282L13.4959 24.3398C13.2495 24.1352 13.0086 23.9239 12.7731 23.7065L12.7857 23.7188C12.5547 23.4826 12.3296 23.2404 12.1104 22.9927L12.1211 23.0055C11.908 22.7399 11.7012 22.469 11.5006 22.1935L11.5096 22.2064C11.3167 21.9142 11.1305 21.6175 10.9507 21.3167L10.9581 21.3297C10.7876 21.0139 10.624 20.6943 10.467 20.3713L10.473 20.3842C10.3267 20.0482 10.1874 19.7091 10.0551 19.3672L10.0597 19.3801C9.93932 19.0275 9.82597 18.6724 9.71963 18.3152L9.72314 18.328C9.62983 17.9627 9.54365 17.5955 9.46458 17.2268L9.46704 17.2395C9.40179 16.8655 9.34372 16.4903 9.29283 16.114L9.29429 16.1267C9.25774 15.7482 9.22841 15.369 9.20632 14.9894L9.2068 15.0022C9.19926 14.6234 9.19896 14.2445 9.20596 13.8657L9.20546 13.8786C9.22689 13.5038 9.25556 13.1295 9.2916 12.7559L9.29007 12.7689C9.3401 12.4024 9.39739 12.0369 9.46207 11.6728L9.45943 11.686C9.53735 11.3319 9.62251 10.9795 9.71509 10.6291L9.7112 10.6425C9.81598 10.3049 9.92797 9.96965 10.0474 9.63711L10.0421 9.65086C10.1723 9.33363 10.3098 9.01945 10.4545 8.7088L10.4476 8.7228C10.6017 8.4296 10.7628 8.14025 10.9312 7.85529L10.9223 7.86946C11.0983 7.60369 11.2812 7.34263 11.471 7.0869L11.4599 7.10104C11.6557 6.86577 11.858 6.63614 12.0669 6.41285L12.0531 6.42663C12.2663 6.22458 12.4856 6.02916 12.7108 5.84111L12.6942 5.85402C12.9223 5.68752 13.1558 5.52868 13.3943 5.37821L13.3748 5.38954C13.6152 5.26056 13.8601 5.14022 14.1089 5.02916L14.0867 5.03806C14.3368 4.9482 14.5902 4.86785 14.8462 4.79749L14.8219 4.80312C15.0791 4.75368 15.3381 4.71441 15.5982 4.68553L15.5729 4.68729C15.8343 4.6793 16.096 4.68185 16.3574 4.69483L16.3322 4.69254C16.5951 4.72676 16.8567 4.77152 17.1163 4.82642L17.0925 4.82039C17.3538 4.89723 17.6123 4.98427 17.8674 5.08085L17.8459 5.07178C18.1024 5.1912 18.3546 5.32017 18.6022 5.45787L18.5836 5.44664C18.8318 5.60806 19.0746 5.77816 19.3118 5.95606L19.2962 5.94349C19.5326 6.14571 19.7628 6.35563 19.9867 6.57236L19.9739 6.55913C20.1953 6.80037 20.4097 7.04828 20.6173 7.30204L20.607 7.28862C20.8101 7.56653 21.0058 7.8501 21.1943 8.13861L21.1861 8.1253C21.368 8.43703 21.5421 8.75349 21.7087 9.07402L21.7023 9.06098C21.8603 9.40325 22.0102 9.74936 22.1525 10.0988L22.1477 10.0861C22.2793 10.4552 22.4027 10.8274 22.5184 11.2021L22.5149 11.1898C22.6181 11.5818 22.713 11.9761 22.8001 12.3723L22.7977 12.3603C22.8707 12.7709 22.9354 13.1831 22.9922 13.5965L22.9908 13.5848C23.0323 14.0096 23.0654 14.4352 23.0905 14.8614L23.09 14.8499C23.0989 15.2842 23.0995 15.7186 23.0919 16.153L23.0923 16.1416C23.068 16.5805 23.0353 17.0189 22.9944 17.4566L22.9956 17.4454C22.9378 17.8841 22.8716 18.3216 22.7971 18.7578L22.7993 18.7466C22.708 19.1802 22.6084 19.6119 22.5005 20.0416L22.5035 20.0305C22.3793 20.4541 22.2468 20.8752 22.106 21.2935L22.11 21.2824C21.9537 21.6912 21.7892 22.0968 21.6163 22.4989L21.6214 22.4878C21.4343 22.8772 21.239 23.2627 21.0354 23.6438L21.0417 23.6328C20.8253 23.9985 20.6008 24.3594 20.3682 24.715L20.3758 24.704C20.1319 25.0418 19.8803 25.3739 19.6208 25.6997L19.6298 25.689C19.3607 25.9951 19.0841 26.2944 18.8001 26.5865L18.8106 26.5762C18.5187 26.8469 18.2198 27.11 17.914 27.3647L17.9263 27.3551C17.6142 27.5874 17.2958 27.811 16.9712 28.0253L16.9852 28.0166C16.6558 28.2077 16.3209 28.3891 15.9809 28.5602L15.9965 28.553C15.6529 28.7005 15.3048 28.8374 14.9527 28.9632L14.9697 28.9578C14.6149 29.0597 14.2569 29.1503 13.8964 29.2293L13.9143 29.226C13.5518 29.2809 13.1874 29.3238 12.822 29.3548L12.8404 29.3538C12.4734 29.3606 12.1062 29.3551 11.7395 29.3375L11.7577 29.339C11.3899 29.2968 11.0234 29.2425 10.659 29.1763L10.6765 29.1801C10.3115 29.089 9.94937 28.9859 9.59078 28.8715L9.60704 28.8773C9.24864 28.7376 8.89454 28.5865 8.54524 28.4248L8.55996 28.4322C8.21195 28.2448 7.86949 28.0468 7.53293 27.8391L7.54593 27.8477C7.2121 27.6142 6.88486 27.3711 6.56439 27.1192L6.57565 27.1285C6.25968 26.8511 5.95111 26.5651 5.65003 26.2713L5.6596 26.2811C5.36497 25.9626 5.07838 25.6364 4.79981 25.3034L4.80783 25.3135C4.5378 24.9571 4.27627 24.594 4.02318 24.2251L4.0298 24.2352C3.78733 23.8446 3.5537 23.4484 3.32881 23.0472L3.33419 23.0573C3.12193 22.6367 2.91875 22.2115 2.72453 21.7821L2.72881 21.7921C2.54905 21.3461 2.37852 20.8963 2.21712 20.4431L2.22042 20.4531C2.07508 19.9864 1.93908 19.5169 1.81232 19.0448L1.81474 19.0546C1.70534 18.5725 1.60534 18.0883 1.51468 17.6022C1.44394 17.1197 1.38102 16.6261 1.32753 16.1314C1.29376 15.6442 1.2686 15.1466 1.25294 14.6487C1.25641 14.1622 1.26925 13.6662 1.29166 13.1706C1.33219 12.6905 1.38284 12.2015 1.44312 11.7138C1.52007 11.2456 1.60794 10.7693 1.70545 10.295L1.70319 10.3049C1.81774 9.84411 1.94176 9.38577 2.07544 8.9303L2.07224 8.94034C2.22154 8.50198 2.38024 8.06689 2.54858 7.63561L2.54431 7.6458C2.72652 7.23476 2.91803 6.82794 3.11909 6.42595L3.1136 6.43626C3.32652 6.0572 3.54857 5.68336 3.77996 5.3155L3.77305 5.32586C4.01417 4.98305 4.26414 4.6466 4.5231 4.31733L4.51455 4.32757C4.78105 4.02491 5.05597 3.72981 5.33933 3.4432L5.32894 3.45307C5.61777 3.194 5.91438 2.94377 6.21861 2.70336L6.20623 2.71248C6.51416 2.49999 6.82895 2.29765 7.15025 2.10641L7.13587 2.11428C7.45952 1.95089 7.78882 1.79892 8.12316 1.65918L8.10698 1.66523C8.44288 1.55304 8.78287 1.45336 9.12613 1.36678L9.10861 1.37047C9.45315 1.31115 9.79995 1.26516 10.148 1.23273L10.1299 1.23369C10.4793 1.22851 10.829 1.23706 11.1779 1.25919L11.16 1.25734C11.5104 1.3071 11.8589 1.37054 12.2046 1.44712L12.1878 1.4427C12.535 1.54767 12.8783 1.6658 13.2171 1.79625L13.2019 1.78976C13.5416 1.94953 13.8757 2.12158 14.2036 2.30487L14.1905 2.2969C14.5182 2.51038 14.8389 2.73499 15.1524 2.96961L15.1413 2.96073C15.4528 3.22606 15.7561 3.50125 16.0512 3.78518L16.0421 3.77583C16.3332 4.09047 16.6152 4.41364 16.8884 4.74431L16.881 4.73484C17.1477 5.09556 17.4048 5.46354 17.6526 5.83786L17.6467 5.82846C17.8854 6.23148 18.114 6.64055 18.3331 7.05486L18.3285 7.04565C18.5359 7.48666 18.733 7.93259 18.9202 8.38275C19.0899 8.84802 19.2527 9.32614 19.4054 9.80754C19.5393 10.3011 19.6653 10.8064 19.7811 11.314C19.8771 11.8304 19.9642 12.3573 20.0411 12.8858C20.0974 13.4193 20.1441 13.9622 20.1805 14.5059C20.1958 15.0504 20.201 15.6034 20.1957 16.1563C20.1694 16.7058 20.1323 17.2628 20.0847 17.8189C20.0165 18.3672 19.9368 18.922 19.8467 19.4751C19.7368 20.016 19.6149 20.5625 19.4825 21.1064C19.3317 21.6338 19.1683 22.1658 18.9943 22.6943C18.8039 23.2022 18.6002 23.7138 18.3859 24.2209C18.1574 24.7035 17.915 25.1888 17.6622 25.6686C17.6342 25.7161 17.6018 25.7712 17.5693 25.8261C17.3307 26.2292 17.0842 26.6276 16.8297 27.0209C16.5319 27.437 16.219 27.8534 15.8962 28.262C15.5678 28.6376 15.2238 29.0122 14.8704 29.3776L14.8776 29.3706C14.5147 29.7085 14.1429 30.0368 13.7624 30.3546L13.7707 30.3481C13.3828 30.6371 12.9868 30.9152 12.5831 31.1815L12.5926 31.1757C12.1833 31.4125 11.767 31.637 11.3443 31.8485L11.3548 31.8437C10.9279 32.0252 10.4955 32.1934 10.0581 32.3476L10.0695 32.344C9.62911 32.468 9.18476 32.5776 8.73727 32.6724L8.74925 32.6703C8.2996 32.7349 7.84779 32.7844 7.39481 32.8187Z" fill="#191919"/>
<path d="M74.2132 9.72729C77.6943 9.7273 80.5162 12.5493 80.5162 16.0303C80.5162 19.5114 77.6943 22.3334 74.2132 22.3334C70.7321 22.3334 67.9102 19.5114 67.9102 16.0303C67.9102 12.5493 70.7321 9.72729 74.2132 9.72729Z" fill="#B12C2F"/>
</svg>
