<svg width="81" height="48" viewBox="0 0 81 48" fill="none" xmlns="http://www.w3.org/2000/svg">
<path d="M7.39091 46.8192C7.34301 46.8244 7.29911 46.8484 7.26888 46.886C7.23864 46.9235 7.22453 46.9715 7.22967 47.0194C7.23481 47.0673 7.25876 47.1112 7.29627 47.1414C7.33377 47.1717 7.38176 47.1859 7.42967 47.1808C7.42967 47.1808 7.42967 47.1808 7.42967 47.1808C7.89413 47.1314 8.35618 47.0597 8.81374 46.9665L8.83013 46.9624C9.29049 46.8234 9.74432 46.6633 10.1903 46.4842L10.2044 46.4777C10.6549 46.2509 11.0957 46.0054 11.5263 45.7435L11.5379 45.7359C11.9729 45.4244 12.3963 45.0971 12.8082 44.7563L12.8173 44.7482C13.232 44.3566 13.634 43.952 14.0239 43.5362L14.031 43.5281C14.421 43.0619 14.7979 42.5849 15.1626 42.0989C15.5294 41.5563 15.8779 41.0128 16.2141 40.4619C16.5478 39.8579 16.8646 39.2541 17.1694 38.6445C17.4673 37.9863 17.7497 37.3294 18.0202 36.6677C18.113 36.4164 18.2018 36.1709 18.2892 35.9249C18.4509 35.4696 18.6076 35.0125 18.7595 34.5539C18.9794 33.8108 19.1859 33.0704 19.3811 32.327C19.5596 31.5539 19.7255 30.7841 19.8803 30.012C20.0164 29.2175 20.1405 28.4268 20.2536 27.6346C20.3467 26.8275 20.4282 26.0247 20.499 25.2209C20.5488 24.41 20.5876 23.604 20.6157 22.7975C20.6225 21.9916 20.6187 21.1911 20.6043 20.3908C20.5688 19.5985 20.5232 18.8122 20.4667 18.0267C20.3902 17.2563 20.3037 16.4928 20.2064 15.7306C20.0903 14.9902 19.9646 14.2575 19.8279 13.5268C19.6742 12.8241 19.5112 12.13 19.3369 11.4387C19.1479 10.7805 18.9499 10.1323 18.7404 9.48772C18.5185 8.88061 18.2883 8.28497 18.0462 7.69403C17.7942 7.14373 17.5347 6.6067 17.2629 6.0757L17.2579 6.06648C16.9837 5.5872 16.6981 5.11416 16.3999 4.64881L16.393 4.63865C16.0961 4.22637 15.7878 3.82197 15.4669 3.42734L15.4573 3.41635C15.1411 3.0746 14.8135 2.74281 14.4738 2.42332L14.4607 2.41193C14.1282 2.14357 13.785 1.88771 13.4309 1.64707L13.4135 1.63633C13.0676 1.44379 12.7127 1.26666 12.3493 1.10766L12.3272 1.09935C11.9711 0.984944 11.6086 0.888808 11.2417 0.812916L11.2162 0.80913C10.8535 0.775082 10.4886 0.761257 10.1241 0.768082L10.098 0.770054C9.73359 0.81789 9.37191 0.886108 9.01517 0.973433L8.99152 0.980586C8.63123 1.11019 8.27801 1.25847 7.93303 1.42307L7.91362 1.4335C7.56331 1.64283 7.22296 1.86803 6.89273 2.10651L6.87782 2.11823C6.54258 2.40378 6.21882 2.70218 5.906 3.01114L5.89493 3.02285C5.57907 3.38014 5.27522 3.74762 4.98253 4.12339L4.97442 4.13446C4.68161 4.5584 4.4008 4.99031 4.13104 5.42874L4.12511 5.43895C3.85857 5.92391 3.60375 6.41508 3.35975 6.91137L3.3554 6.92073C3.11796 7.46059 2.89187 8.00528 2.67631 8.55394C2.46726 9.15077 2.27235 9.74268 2.08769 10.3377C1.91319 10.9753 1.75161 11.6076 1.60005 12.2423C1.46165 12.9135 1.3352 13.5792 1.21856 14.2465C1.11749 14.9438 1.02757 15.6353 0.947333 16.3279C0.884453 17.0437 0.832097 17.7533 0.789325 18.4634C0.765131 19.1898 0.750918 19.9097 0.746274 20.6296C0.760873 21.3587 0.785005 22.0809 0.818731 22.8027C0.871843 23.5268 0.934103 24.2435 1.00602 24.9592C1.09699 25.6707 1.19673 26.374 1.30626 27.0759C1.43404 27.7673 1.57024 28.4498 1.7164 29.1302C1.87962 29.7944 2.05086 30.4488 2.23227 31.1004C2.42923 31.7308 2.63372 32.3501 2.84865 32.966C3.0774 33.5562 3.31307 34.1342 3.55943 34.7077L3.5636 34.7169C3.81779 35.2521 4.08223 35.7827 4.35761 36.3077L4.3631 36.3177C4.64327 36.8013 4.93383 37.2791 5.23551 37.7501L5.24275 37.7608C5.54612 38.1882 5.85992 38.6086 6.1849 39.0205L6.19442 39.0318C6.51813 39.3992 6.85217 39.7579 7.19712 40.1063L7.20957 40.118C7.55076 40.4221 7.90184 40.7156 8.26312 40.9966L8.27913 41.0081C8.63495 41.2461 8.99973 41.4714 9.37327 41.682L9.39324 41.6922C9.76082 41.8618 10.1357 42.0166 10.517 42.1545L10.5407 42.1619C10.9169 42.2611 11.2978 42.3435 11.682 42.4078L11.7082 42.4109C12.0893 42.4382 12.4718 42.4475 12.854 42.4384L12.8805 42.4365C13.2621 42.3911 13.6416 42.3276 14.0172 42.2468L14.0418 42.2403C14.4191 42.1227 14.791 41.9881 15.1562 41.8383L15.1775 41.8285C15.5457 41.6404 15.906 41.4375 16.2579 41.2215L16.2752 41.21C16.63 40.9546 16.9752 40.6866 17.3111 40.4078L17.3248 40.3956C17.6622 40.0768 17.9893 39.7476 18.3067 39.4095L18.3173 39.3975C18.634 39.0198 18.9403 38.6336 19.2366 38.2402L19.2447 38.2288C19.5379 37.7973 19.8207 37.3589 20.0936 36.9146L20.0999 36.9039C20.367 36.424 20.6239 35.9386 20.8712 35.4485L20.876 35.4385C21.1148 34.9162 21.3437 34.3895 21.5633 33.859L21.567 33.8495C21.7757 33.291 21.9748 32.7291 22.1647 32.1641C22.3446 31.5671 22.5124 30.9762 22.6713 30.3831C22.8177 29.7636 22.953 29.1505 23.0795 28.5357C23.1917 27.9007 23.2937 27.2723 23.387 26.6426C23.4647 25.9989 23.5328 25.3621 23.5924 24.7245C23.6357 24.079 23.6699 23.4408 23.6956 22.8023C23.7046 22.1619 23.7052 21.5294 23.6972 20.8968C23.6727 20.2683 23.6402 19.6481 23.5992 19.0284C23.5422 18.4182 23.4776 17.8171 23.4044 17.2169C23.3161 16.6312 23.2207 16.0554 23.1166 15.4811C22.9985 14.9258 22.874 14.3814 22.7405 13.839L22.7379 13.8291C22.5945 13.3195 22.4427 12.812 22.2817 12.3073L22.278 12.2966C22.1097 11.8283 21.9327 11.363 21.7462 10.9012L21.7412 10.8894C21.5502 10.4671 21.3504 10.0484 21.1408 9.63433L21.1338 9.62128C20.9227 9.24867 20.7026 8.88076 20.4725 8.51873L20.4627 8.50435C20.234 8.18468 19.9961 7.87101 19.7481 7.56486L19.7346 7.54928C19.4906 7.28518 19.2376 7.02873 18.9747 6.78184L18.9561 6.7657C18.6991 6.55935 18.4335 6.36271 18.1591 6.17803L18.1342 6.1629C17.8663 6.01628 17.5911 5.8818 17.309 5.76174L17.2775 5.75028C17.0012 5.6655 16.7198 5.59527 16.4349 5.54122L16.3988 5.5365C16.1172 5.51564 15.8342 5.51092 15.5519 5.5226L15.5154 5.52625C15.2332 5.57052 14.9537 5.63089 14.6788 5.70614L14.6462 5.71699C14.3687 5.8258 14.0974 5.94905 13.8332 6.08473L13.8069 6.09982C13.539 6.27083 13.2794 6.45382 13.0281 6.64669L13.0083 6.66321C12.7537 6.89301 12.5084 7.13233 12.2719 7.37938L12.2575 7.39557C12.0193 7.68027 11.7907 7.97239 11.5709 8.27051L11.5604 8.28562C11.3413 8.621 11.1315 8.96212 10.9304 9.30789L10.9228 9.32171C10.7249 9.70324 10.5361 10.0892 10.3557 10.4788L10.3502 10.4914C10.1755 10.9142 10.0096 11.3404 9.85177 11.7695L9.84777 11.781C9.69807 12.24 9.55681 12.7015 9.42343 13.1652L9.42055 13.1759C9.29734 13.6655 9.18226 14.1571 9.07487 14.6502L9.07285 14.6603C8.97734 15.1749 8.88971 15.6908 8.80962 16.2079C8.7414 16.7511 8.68219 17.2857 8.63042 17.8209C8.59202 18.3768 8.56192 18.924 8.53919 19.4715C8.53086 20.0342 8.5302 20.5879 8.53691 21.1415C8.55862 21.705 8.58746 22.2592 8.62368 22.8129C8.67512 23.3713 8.73319 23.9199 8.7987 24.4677C8.87927 25.0152 8.96597 25.5524 9.06023 26.0883C9.16909 26.6193 9.28355 27.1393 9.40571 27.6576L9.40822 27.6676C9.54176 28.1669 9.68283 28.6643 9.83175 29.1595L9.83511 29.17C9.99371 29.6421 10.1599 30.1117 10.3342 30.5785L10.3387 30.5897C10.5206 31.0298 10.7104 31.4668 10.9084 31.9003L10.9142 31.9123C11.1177 32.3162 11.3292 32.7164 11.549 33.1121L11.5566 33.125C11.7796 33.4888 12.0107 33.8481 12.2503 34.2019L12.2601 34.2157C12.5006 34.5362 12.7492 34.8511 13.0063 35.1593L13.0191 35.1738C13.2749 35.4482 13.5386 35.7158 13.8107 35.9751L13.8273 35.9899C14.0963 36.2158 14.3729 36.4333 14.6572 36.6411L14.6782 36.6553C14.9583 36.8306 15.2452 36.9959 15.5386 37.1497L15.5645 37.162C15.8535 37.2849 16.1479 37.3962 16.4469 37.4945L16.477 37.5029C16.7723 37.5719 17.071 37.6278 17.3718 37.6698L17.4045 37.6728C17.703 37.6867 18.0022 37.6868 18.3008 37.6729L18.3335 37.6698C18.6314 37.6283 18.9274 37.5731 19.22 37.5049L19.2503 37.4964C19.5437 37.4002 19.8328 37.2914 20.1165 37.1711L20.1425 37.1588C20.4278 37.0099 20.7069 36.8499 20.9794 36.6801L21.0007 36.6658C21.2745 36.4668 21.5411 36.2585 21.8005 36.0421L21.8173 36.0271C22.077 35.7815 22.3289 35.5281 22.5733 35.2681L22.5865 35.2533C22.8296 34.9645 23.0649 34.6695 23.2927 34.3691L23.3029 34.355C23.5275 34.0271 23.7444 33.6942 23.9539 33.357L23.9618 33.3437C24.1662 32.9811 24.3631 32.6143 24.5528 32.2441L24.5588 32.2316C24.7416 31.8387 24.9171 31.4426 25.0855 31.0436L25.0901 31.0319C25.25 30.6135 25.4028 30.1925 25.5487 29.7692L25.5523 29.7581C25.6883 29.3192 25.8174 28.8782 25.9399 28.4354L25.9426 28.4249C26.0539 27.9705 26.1586 27.5145 26.2568 27.0572L26.2589 27.047C26.3451 26.5824 26.4249 26.1166 26.4984 25.6497L26.4998 25.6398C26.5608 25.1701 26.6155 24.6996 26.6639 24.2284C26.7005 23.7491 26.7302 23.279 26.7536 22.8087C26.7648 22.3346 26.7697 21.8701 26.7684 21.4056C26.7549 20.9417 26.7356 20.4877 26.7101 20.0341L26.7094 20.0239C26.6726 19.5849 26.63 19.1463 26.581 18.7083L26.5797 18.6976C26.5206 18.2782 26.4556 17.8596 26.3843 17.4418L26.3822 17.4305C26.3021 17.0349 26.2161 16.6404 26.1235 16.2472L26.1205 16.235C26.0209 15.8671 25.9153 15.5007 25.8029 15.136L25.7986 15.1228C25.6812 14.7861 25.5575 14.4513 25.427 14.1188L25.4209 14.1043C25.2873 13.8018 25.1474 13.5017 25.0003 13.2048L24.9918 13.1886C24.8439 12.9229 24.6894 12.6604 24.5275 12.4018L24.5156 12.3839C24.3551 12.1571 24.1878 11.9344 24.013 11.7169L23.9961 11.6973C23.8246 11.5111 23.6462 11.3302 23.4604 11.1561L23.4368 11.1357C23.2556 10.9916 23.0678 10.8543 22.8731 10.7258L22.8412 10.7069C22.6515 10.6064 22.4561 10.5148 22.2555 10.434L22.215 10.4202C22.0185 10.3654 21.8184 10.3214 21.6158 10.2896L21.5697 10.2852C21.3696 10.278 21.1688 10.2829 20.9692 10.2998L20.9236 10.3065C20.7243 10.3477 20.5277 10.4006 20.3352 10.4641L20.2959 10.4795C20.1021 10.5678 19.9136 10.6662 19.7308 10.773L19.7003 10.7928C19.5156 10.9255 19.3375 11.0662 19.1659 11.2133L19.1436 11.2341C18.9704 11.408 18.8043 11.588 18.6448 11.7728L18.6289 11.7926C18.469 12.0044 18.3162 12.2209 18.1699 12.441L18.1585 12.4592C18.0135 12.7056 17.8752 12.9556 17.7432 13.2084L17.7351 13.2248C17.6062 13.5026 17.4837 13.783 17.3672 14.0655L17.3614 14.0804C17.2497 14.3859 17.1443 14.6933 17.0445 15.0024L17.0404 15.016C16.9471 15.3454 16.8596 15.6763 16.7777 16.0084L16.7749 16.021C16.7008 16.3704 16.6323 16.7209 16.5693 17.0722L16.5674 17.084C16.5132 17.4493 16.4645 17.8153 16.4211 18.1818L16.4199 18.1931C16.3862 18.5701 16.3578 18.9475 16.3346 19.3251L16.3341 19.336C16.3211 19.7204 16.3133 20.105 16.3107 20.4895L16.3108 20.5002C16.3186 20.8877 16.3316 21.2751 16.3497 21.6623L16.3504 21.6729C16.3789 22.0593 16.4125 22.4453 16.4513 22.8309L16.4525 22.8416C16.5013 23.2227 16.5553 23.6032 16.6144 23.9829L16.6163 23.9938C16.6849 24.3656 16.7586 24.7365 16.8377 25.1063L16.8403 25.1177C16.9278 25.4763 17.0206 25.8337 17.1189 26.1897L17.1223 26.2016C17.228 26.5433 17.339 26.8836 17.4555 27.2221L17.46 27.2346C17.5827 27.5562 17.7107 27.8759 17.8445 28.1934L17.8504 28.2067C17.9888 28.505 18.1327 28.801 18.2825 29.0943L18.2901 29.1084C18.443 29.3807 18.6015 29.6502 18.7659 29.9163L18.7757 29.9314C18.9417 30.1752 19.1133 30.4156 19.2909 30.6519L19.3036 30.6679C19.4812 30.8812 19.6645 31.0903 19.8538 31.2944L19.87 31.3109C20.0579 31.4919 20.2513 31.6678 20.4504 31.8377L20.4709 31.8541C20.6677 32.0013 20.8696 32.1423 21.0767 32.2762L21.1022 32.2914C21.3063 32.4033 21.515 32.508 21.7279 32.6045L21.7583 32.6168C21.9681 32.6923 22.1815 32.7595 22.3976 32.8175L22.432 32.8252C22.6455 32.8632 22.861 32.8921 23.0775 32.9114L23.1139 32.913C23.3286 32.9131 23.5434 32.9036 23.7573 32.8847L23.793 32.88C24.006 32.8422 24.2172 32.7953 24.4259 32.7396L24.4584 32.7294C24.6669 32.6549 24.872 32.5721 25.0734 32.4816L25.1013 32.4677C25.3026 32.3583 25.4997 32.2416 25.6921 32.1185L25.715 32.1027C25.9072 31.9606 26.0945 31.8125 26.2768 31.659L26.2952 31.6426C26.4765 31.4706 26.6527 31.2935 26.8239 31.112L26.8383 31.0958C27.0075 30.8965 27.1715 30.6931 27.3305 30.4861L27.3418 30.4706C27.4977 30.2469 27.6485 30.0199 27.7943 29.79L27.8032 29.7753C27.9448 29.5304 28.0815 29.2827 28.2134 29.0326L28.2204 29.0188C28.347 28.7557 28.4688 28.4904 28.586 28.2232L28.5915 28.2102C28.7024 27.9322 28.8088 27.6525 28.9106 27.3712L28.9149 27.3589C29.0097 27.0694 29.1001 26.7785 29.1861 26.4864L29.1894 26.4747C29.2678 26.1771 29.3419 25.8785 29.4118 25.5789L29.4143 25.5675C29.4761 25.2654 29.5338 24.9623 29.5874 24.6586L29.5892 24.6475C29.6344 24.3441 29.6757 24.0401 29.713 23.7355L29.7142 23.7246C29.7432 23.4233 29.7683 23.1216 29.7894 22.8196L29.79 22.8087C29.8031 22.5128 29.8124 22.2167 29.8177 21.9204L29.8177 21.9093C29.8154 21.622 29.8094 21.3346 29.7994 21.0472L29.7989 21.0358C29.7819 20.7599 29.7612 20.4841 29.7366 20.2086L29.7353 20.1966C29.7045 19.935 29.67 19.6736 29.6315 19.4127L29.6294 19.4C29.5857 19.1551 29.5383 18.9107 29.4868 18.6669L29.4836 18.6532C29.4281 18.4273 29.3688 18.202 29.3052 17.9777L29.3007 17.9626C29.2344 17.7576 29.1642 17.5535 29.0897 17.3506L29.0831 17.3338C29.0072 17.1514 28.9273 16.9701 28.8428 16.7904L28.8333 16.7715C28.7489 16.6128 28.6603 16.4558 28.5667 16.3008L28.5529 16.2794C28.4608 16.1455 28.3643 16.0137 28.2626 15.8848L28.2424 15.861C28.1433 15.7526 28.0396 15.6471 27.9305 15.5455L27.901 15.5205C27.7952 15.4384 27.6846 15.3604 27.569 15.2879L27.5276 15.2651C27.4152 15.2108 27.2987 15.1622 27.1784 15.1209L27.1253 15.1065C27.0076 15.0822 26.8875 15.0655 26.7663 15.0571L26.7078 15.0571C26.5883 15.0651 26.4694 15.0812 26.3525 15.1051L26.2987 15.1198C26.1826 15.1596 26.0698 15.2067 25.9609 15.2596L25.9186 15.2832C25.8097 15.3522 25.7055 15.4266 25.6058 15.505L25.5757 15.5311C25.4759 15.6259 25.3809 15.7244 25.2905 15.8258L25.2699 15.8506C25.1797 15.9684 25.0941 16.0888 25.0128 16.2112L24.9989 16.2336C24.9186 16.3721 24.8426 16.5124 24.7706 16.6542L24.7612 16.6741C24.6912 16.8311 24.6252 16.9895 24.5629 17.1489L24.5564 17.1665C24.4972 17.34 24.4417 17.5144 24.3896 17.6896L24.3852 17.7054C24.3371 17.8931 24.2925 18.0814 24.2513 18.2702L24.2484 18.2847C24.2118 18.4841 24.1786 18.684 24.1486 18.8842L24.1468 18.8977C24.1221 19.1065 24.1007 19.3156 24.0823 19.5248L24.0814 19.5375C24.0688 19.7532 24.0594 19.969 24.053 20.1848L24.0528 20.1971C24.0524 20.4171 24.0551 20.6371 24.0608 20.857L24.0613 20.8689C24.0731 21.0908 24.0879 21.3125 24.1058 21.534L24.1069 21.5458C24.1307 21.7671 24.1576 21.988 24.1875 22.2085L24.1892 22.2204C24.2249 22.4386 24.2635 22.6563 24.3052 22.8735L24.3077 22.8855C24.3548 23.0984 24.4049 23.3106 24.458 23.5221L24.4613 23.5345C24.5194 23.7398 24.5804 23.9443 24.6446 24.1479L24.6489 24.1607C24.7173 24.3564 24.7887 24.5511 24.8634 24.7447L24.8689 24.7582C24.947 24.9424 25.0282 25.1255 25.1127 25.3072L25.1196 25.3213C25.2067 25.4924 25.297 25.6621 25.3906 25.8301L25.3994 25.845C25.4947 26.0015 25.5933 26.1562 25.6953 26.309L25.7063 26.3247C25.8091 26.4652 25.9152 26.6037 26.0247 26.7399L26.0385 26.7561C26.148 26.8797 26.2608 27.0008 26.377 27.1191L26.3941 27.1356C26.5096 27.2411 26.6282 27.3438 26.75 27.4432L26.7711 27.4593C26.8917 27.5461 27.0152 27.6295 27.1417 27.709L27.1671 27.7238C27.292 27.7911 27.4194 27.8544 27.5493 27.9133L27.5789 27.9254C27.707 27.9726 27.8371 28.0153 27.9689 28.053L28.002 28.0611C28.132 28.0877 28.2633 28.1093 28.3954 28.1258L28.4303 28.1287C28.5607 28.1346 28.6914 28.1353 28.8221 28.1309L28.8568 28.1283C28.9859 28.1137 29.1143 28.0941 29.2418 28.0697L29.2744 28.0621C29.4004 28.0279 29.5251 27.9891 29.648 27.946L29.677 27.9346C29.7985 27.8821 29.918 27.8255 30.0354 27.7652L30.0603 27.7513C30.1761 27.6821 30.2896 27.6094 30.4007 27.5335L30.4214 27.5184C30.5307 27.4341 30.6375 27.3469 30.7418 27.2571L30.7588 27.2417C30.861 27.1442 30.9606 27.0442 31.0577 26.942L31.0714 26.9269C31.166 26.8179 31.2582 26.7068 31.3478 26.594L31.3589 26.5794C31.4456 26.4607 31.5299 26.3403 31.6118 26.2184L31.6207 26.2046C31.6992 26.078 31.7755 25.95 31.8495 25.8208L31.8567 25.8077C31.9269 25.675 31.995 25.5412 32.061 25.4063L32.0668 25.3939C32.1287 25.2569 32.1886 25.1191 32.2464 24.9803L32.2511 24.9685C32.3046 24.8291 32.3563 24.6889 32.406 24.548L32.4098 24.5367C32.4552 24.3966 32.4987 24.2558 32.5405 24.1144L32.5435 24.1035C32.5808 23.9644 32.6165 23.8247 32.6504 23.6845L32.6528 23.6739C32.6824 23.5373 32.7104 23.4004 32.7367 23.2629L32.7386 23.2525C32.7608 23.1201 32.7815 22.9873 32.8006 22.8542L32.802 22.8438C32.8172 22.717 32.8311 22.5898 32.8434 22.4623L32.8443 22.4518C32.8531 22.3318 32.8605 22.2115 32.8665 22.0909L32.8669 22.0802C32.8698 21.9681 32.8714 21.8559 32.8716 21.7433L32.8714 21.7321C32.869 21.6289 32.8653 21.5256 32.8603 21.4221L32.8595 21.41C32.8524 21.3166 32.8441 21.223 32.8343 21.1292L32.8327 21.1159C32.8215 21.0328 32.8092 20.9495 32.7953 20.8658L32.7925 20.8507C32.7779 20.7782 32.762 20.7055 32.7444 20.6323L32.7397 20.6144C32.7221 20.5525 32.7031 20.4903 32.6821 20.4275L32.674 20.4052C32.6537 20.3536 32.6316 20.3014 32.6069 20.2483L32.5919 20.219C32.5682 20.1766 32.5422 20.1334 32.512 20.089L32.4814 20.049C32.4518 20.0146 32.4182 19.979 32.3768 19.9427L32.3095 19.8939C32.2665 19.8684 32.2158 19.8436 32.1552 19.8247L32.0307 19.8043C31.969 19.8028 31.904 19.8108 31.8441 19.8277L31.7315 19.8764C31.6801 19.9075 31.6378 19.9421 31.6026 19.976L31.5507 20.0357C31.5207 20.0769 31.4968 20.1166 31.4762 20.1547L31.4556 20.1986C31.4373 20.2434 31.4223 20.2867 31.4091 20.329L31.4007 20.3604C31.3893 20.4094 31.3798 20.4574 31.3718 20.5048L31.3684 20.5287C31.3622 20.5824 31.3575 20.6355 31.354 20.6881L31.3531 20.7075C31.3517 20.7658 31.3515 20.8236 31.3524 20.8809L31.353 20.8977C31.3562 20.9599 31.3606 21.0217 31.366 21.0831L31.3675 21.0983C31.3755 21.1636 31.3844 21.2285 31.3944 21.2932L31.3968 21.3073C31.4094 21.3748 31.4231 21.442 31.4377 21.5087L31.4409 21.5224C31.4582 21.591 31.4765 21.6593 31.4958 21.7273L31.4998 21.7407C31.5217 21.8095 31.5447 21.8779 31.5686 21.9459L31.5736 21.9594C31.6 22.0273 31.6275 22.0949 31.656 22.162L31.6621 22.1756C31.6928 22.2418 31.7247 22.3075 31.7576 22.3727L31.765 22.3866C31.7999 22.4501 31.836 22.5131 31.8732 22.5754L31.882 22.5896C31.9209 22.6496 31.961 22.709 32.0022 22.7677L32.0128 22.7821C32.0554 22.8379 32.0992 22.8929 32.1442 22.9471L32.1569 22.9617C32.2029 23.0125 32.2501 23.0625 32.2985 23.1115L32.3137 23.1261C32.3627 23.1713 32.413 23.2156 32.4646 23.2587L32.4824 23.2729C32.5342 23.312 32.5872 23.35 32.6414 23.3867L32.662 23.3999C32.7161 23.4324 32.7714 23.4637 32.8277 23.4935L32.8511 23.505C32.9071 23.5307 32.964 23.5548 33.0219 23.5773L33.0476 23.5864C33.1048 23.6049 33.1628 23.6216 33.2215 23.6367L33.2488 23.6428C33.3066 23.6538 33.3649 23.6632 33.4236 23.6707L33.4516 23.6734C33.509 23.6772 33.5668 23.6793 33.6246 23.6796L33.6522 23.6789C33.7086 23.6758 33.765 23.671 33.8213 23.6645L33.8474 23.6608C33.902 23.6513 33.9563 23.6403 34.0104 23.6277L34.0343 23.6214C34.0864 23.6063 34.1381 23.5899 34.1895 23.5721L34.2107 23.5641C34.2598 23.5443 34.3085 23.5233 34.3568 23.5011L34.3751 23.4922C34.4209 23.4686 34.4664 23.444 34.5113 23.4185L34.5268 23.4092C34.5691 23.3829 34.611 23.3557 34.6525 23.3278L34.6653 23.3188C34.704 23.2907 34.7424 23.262 34.7803 23.2325L34.7907 23.2243C34.8257 23.1955 34.8604 23.1662 34.8948 23.1363L34.95 23.0793C35.2182 22.7919 35.9122 22.5881 36.5051 22.6095C39.9295 22.6237 43.3474 22.6227 46.7667 22.6267C52.1985 22.631 57.6432 22.6348 63.0632 22.6342C63.1918 22.6341 63.315 22.583 63.4058 22.4919C63.4966 22.4009 63.5475 22.2774 63.5473 22.1487C63.5472 22.02 63.4959 21.8966 63.4049 21.8058C63.3138 21.715 63.1904 21.6642 63.0618 21.6645C63.0618 21.6645 63.0618 21.6645 63.0618 21.6645C57.6433 21.6752 52.198 21.6815 46.7667 21.6873C43.3509 21.6897 39.9187 21.697 36.5168 21.6892C35.745 21.7031 34.952 21.785 34.2385 22.5016L34.2937 22.4445C34.2656 22.469 34.237 22.4932 34.2081 22.5171L34.2184 22.5088C34.1883 22.5323 34.1578 22.5553 34.1267 22.5778L34.1396 22.5688C34.1076 22.5905 34.0752 22.6116 34.0423 22.6321L34.0578 22.6229C34.0242 22.6421 33.9901 22.6606 33.9556 22.6785L33.974 22.6695C33.9389 22.6857 33.9034 22.7011 33.8675 22.7156L33.8887 22.7077C33.8525 22.7203 33.8158 22.7321 33.7788 22.7429L33.8027 22.7366C33.7654 22.7453 33.7278 22.753 33.69 22.7597L33.7161 22.7559C33.6779 22.7604 33.6395 22.7637 33.601 22.7659L33.6285 22.7652C33.5896 22.7651 33.5505 22.7637 33.5113 22.7612L33.5393 22.7639C33.4996 22.7589 33.4599 22.7526 33.4202 22.7451L33.4475 22.7512C33.4072 22.7409 33.3669 22.7294 33.3268 22.7165L33.3525 22.7256C33.3116 22.7098 33.271 22.6927 33.2307 22.6743L33.2541 22.6858C33.213 22.6642 33.1724 22.6413 33.1322 22.6172L33.1528 22.6304C33.112 22.6028 33.0717 22.5741 33.032 22.5442L33.0498 22.5583C33.0097 22.5249 32.9703 22.4904 32.9315 22.4548L32.9467 22.4694C32.9079 22.4303 32.8698 22.3902 32.8326 22.3492L32.8453 22.3638C32.8083 22.3195 32.7722 22.2743 32.7369 22.2283L32.7475 22.2427C32.713 22.1937 32.6793 22.144 32.6464 22.0935L32.6553 22.1077C32.6235 22.0547 32.5927 22.0012 32.5628 21.947L32.5701 21.9609C32.5417 21.9048 32.5141 21.8483 32.4875 21.7913L32.4936 21.8049C32.4687 21.7467 32.4448 21.6882 32.4218 21.6293L32.4268 21.6427C32.4058 21.5835 32.3857 21.524 32.3666 21.4643L32.3707 21.4777C32.3537 21.4186 32.3377 21.3593 32.3227 21.2999L32.3259 21.3135C32.3131 21.2556 32.3012 21.1977 32.2903 21.1398L32.2927 21.1539C32.2841 21.0986 32.2763 21.0434 32.2696 20.9882L32.2712 21.0034C32.2666 20.9519 32.2629 20.9006 32.2601 20.8496L32.2607 20.8664C32.2599 20.8201 32.26 20.7743 32.261 20.7289L32.2601 20.7484C32.2627 20.7088 32.2661 20.6698 32.2704 20.6318L32.267 20.6557C32.2722 20.6244 32.2782 20.5943 32.2848 20.5656L32.2763 20.597C32.2827 20.5761 32.2895 20.5569 32.2962 20.5404L32.2755 20.5842C32.2799 20.576 32.2835 20.5707 32.2845 20.5693L32.2325 20.629C32.227 20.6342 32.2172 20.6428 32.2011 20.6526L32.0885 20.7013C32.0638 20.7083 32.0354 20.7118 32.0102 20.7111L31.8857 20.6908C31.8654 20.6844 31.8532 20.6778 31.8467 20.6739L31.7793 20.625C31.7805 20.626 31.7861 20.6313 31.7934 20.6397L31.7627 20.5998C31.7747 20.6172 31.7876 20.6382 31.8005 20.6613L31.7855 20.6319C31.8011 20.6652 31.8163 20.7008 31.8309 20.7378L31.8228 20.7155C31.8388 20.7632 31.854 20.8124 31.8684 20.8626L31.8636 20.8447C31.8784 20.9056 31.8921 20.9676 31.9048 21.0303L31.902 21.0152C31.9144 21.0885 31.9255 21.1625 31.9357 21.237L31.9341 21.2238C31.9431 21.3085 31.9508 21.3937 31.9575 21.4794L31.9567 21.4673C31.9616 21.5626 31.9651 21.6582 31.9676 21.7541L31.9674 21.7428C31.9675 21.8476 31.9662 21.9526 31.9637 22.0578L31.9641 22.047C31.9587 22.1601 31.9519 22.2734 31.9438 22.3867L31.9447 22.3763C31.9333 22.4965 31.9204 22.6168 31.9062 22.737L31.9075 22.7267C31.8897 22.8527 31.8703 22.9786 31.8494 23.1044L31.8513 23.094C31.8266 23.2242 31.8002 23.3543 31.7724 23.4841L31.7748 23.4735C31.7429 23.6064 31.7093 23.7391 31.6741 23.8713L31.6772 23.8604C31.6379 23.9944 31.5969 24.1278 31.5541 24.2608L31.5579 24.2495C31.5112 24.3827 31.4626 24.5153 31.4122 24.6473L31.417 24.6355C31.3627 24.7662 31.3066 24.8961 31.2486 25.0252L31.2544 25.0127C31.1929 25.1392 31.1293 25.2646 31.0638 25.389L31.071 25.3759C31.0024 25.4962 30.9317 25.6154 30.8589 25.7332L30.8679 25.7193C30.7925 25.8319 30.715 25.9429 30.6355 26.0524L30.6465 26.0378C30.5649 26.1409 30.4812 26.2422 30.3954 26.3415L30.4091 26.3264C30.3218 26.4185 30.2325 26.5084 30.1412 26.596L30.1581 26.5806C30.0659 26.6603 29.9717 26.7375 29.8757 26.8118L29.8964 26.7967C29.8 26.8629 29.7018 26.926 29.6019 26.986L29.6268 26.9721C29.5269 27.0237 29.4256 27.0719 29.3228 27.1165L29.3519 27.1051C29.2492 27.1414 29.1453 27.174 29.0405 27.2026L29.0732 27.195C28.9682 27.2154 28.8624 27.2317 28.7562 27.2439L28.791 27.2413C28.684 27.2451 28.5767 27.2447 28.4695 27.2401L28.5045 27.243C28.3957 27.2297 28.2873 27.212 28.1795 27.1902L28.2125 27.1982C28.1025 27.167 27.9934 27.1315 27.8853 27.0919L27.915 27.104C27.8044 27.0542 27.6952 27.0002 27.5876 26.9424L27.6131 26.9572C27.5029 26.8883 27.3947 26.8156 27.2885 26.7394L27.3096 26.7555C27.2011 26.6675 27.095 26.5759 26.9912 26.4814L27.0083 26.4979C26.903 26.391 26.8002 26.2811 26.6999 26.1684L26.7137 26.1847C26.6127 26.0597 26.5146 25.932 26.4191 25.802L26.43 25.8177C26.3348 25.6755 26.2424 25.5311 26.1528 25.3847L26.1615 25.3997C26.0731 25.2417 25.9877 25.0819 25.9051 24.9204L25.912 24.9346C25.8315 24.7624 25.7541 24.5887 25.6795 24.4136L25.6849 24.4271C25.6134 24.2425 25.5448 24.0567 25.479 23.8698L25.4833 23.8826C25.4215 23.6877 25.3626 23.4917 25.3065 23.2948L25.3098 23.3072C25.2584 23.104 25.2098 22.9 25.1641 22.6953L25.1666 22.7074C25.1261 22.4983 25.0885 22.2885 25.0537 22.0783L25.0555 22.0902C25.0263 21.8776 25 21.6646 24.9766 21.4512L24.9777 21.463C24.9601 21.2494 24.9454 21.0357 24.9337 20.8217L24.9341 20.8336C24.9283 20.6217 24.9253 20.4097 24.9252 20.1978L24.9251 20.21C24.9309 20.0023 24.9395 19.7947 24.9513 19.5875L24.9503 19.6002C24.9676 19.3994 24.9878 19.199 25.011 18.999L25.0092 19.0124C25.0375 18.8212 25.0688 18.6305 25.1033 18.4406L25.1004 18.455C25.1392 18.2759 25.1811 18.0975 25.2262 17.9203L25.2218 17.9361C25.2704 17.7715 25.3221 17.6081 25.3771 17.4462L25.3706 17.4638C25.428 17.3162 25.4886 17.1701 25.5525 17.026L25.543 17.0459C25.6081 16.9173 25.6762 16.7909 25.7477 16.6671L25.7338 16.6895C25.805 16.582 25.8791 16.4772 25.9565 16.3759L25.9359 16.4008C26.0115 16.3158 26.0897 16.2344 26.1708 16.1572L26.1407 16.1833C26.2187 16.1216 26.2989 16.0643 26.3811 16.012L26.3388 16.0356C26.4177 15.997 26.498 15.9635 26.5795 15.9353L26.5257 15.95C26.6052 15.9336 26.6854 15.9226 26.766 15.9171L26.7074 15.9171C26.7892 15.9226 26.8709 15.9337 26.9525 15.9503L26.8994 15.9359C26.9851 15.9651 27.07 16.0002 27.1537 16.0405L27.1124 16.0176C27.2017 16.0734 27.2892 16.1347 27.3745 16.2006L27.345 16.1756C27.4357 16.2597 27.5235 16.3486 27.6086 16.4413L27.5884 16.4176C27.6776 16.5302 27.7633 16.6468 27.8459 16.7664L27.8321 16.7451C27.9172 16.8855 27.9986 17.0291 28.0767 17.175L28.0672 17.1561C28.146 17.323 28.221 17.4923 28.2926 17.6634L28.286 17.6467C28.3568 17.8382 28.4237 18.0316 28.4871 18.2265L28.4825 18.2114C28.5436 18.4256 28.6008 18.6411 28.6545 18.8579L28.6513 18.8441C28.7013 19.0786 28.7475 19.3142 28.7902 19.5506L28.7881 19.5379C28.8258 19.7903 28.8597 20.0434 28.8901 20.297L28.8888 20.2851C28.9132 20.5525 28.9338 20.8205 28.9508 21.0888L28.9503 21.0774C28.9605 21.357 28.9669 21.6369 28.9697 21.917L28.9697 21.9059C28.965 22.1947 28.9565 22.4835 28.9444 22.7722L28.945 22.7613C28.9249 23.0559 28.9009 23.3504 28.8732 23.6445L28.8744 23.6336C28.8385 23.9309 28.7988 24.2276 28.7552 24.5239L28.7569 24.5128C28.7052 24.8092 28.6495 25.1049 28.5898 25.3998L28.5922 25.3884C28.5246 25.6805 28.453 25.9716 28.3772 26.2616L28.3804 26.2499C28.2972 26.5342 28.2099 26.8172 28.1182 27.0988L28.1224 27.0865C28.0241 27.3597 27.9214 27.6312 27.8144 27.9009L27.8198 27.8879C27.7069 28.1466 27.5896 28.4032 27.4678 28.6575L27.4747 28.6438C27.3482 28.8848 27.2171 29.1233 27.0815 29.3589L27.0903 29.3443C26.9511 29.5646 26.8074 29.7818 26.659 29.9956L26.6703 29.9801C26.5197 30.177 26.3646 30.3701 26.2048 30.559L26.2193 30.5429C26.0586 30.7138 25.8936 30.8803 25.7241 31.0417L25.7424 31.0253C25.5732 31.1682 25.3999 31.3059 25.2225 31.4374L25.2455 31.4216C25.0692 31.5348 24.8893 31.6418 24.706 31.7418L24.7339 31.728C24.552 31.8102 24.3673 31.8852 24.18 31.9525L24.2125 31.9423C24.0262 31.9924 23.838 32.0346 23.6484 32.0686L23.6841 32.0638C23.4943 32.0809 23.3039 32.0896 23.1134 32.0899L23.1498 32.0915C22.9576 32.0748 22.766 32.0495 22.5755 32.0159L22.6099 32.0235C22.4164 31.972 22.2248 31.912 22.0355 31.8443L22.0659 31.8566C21.8726 31.7695 21.6824 31.6745 21.4956 31.5725L21.521 31.5876C21.3301 31.4647 21.1432 31.3347 20.9604 31.1985L20.9809 31.2149C20.7946 31.0565 20.613 30.892 20.436 30.7222L20.4522 30.7386C20.2729 30.546 20.0988 30.348 19.9295 30.1456L19.9422 30.1615C19.7721 29.9362 19.6075 29.7065 19.4479 29.4729L19.4577 29.488C19.299 29.2323 19.1458 28.9728 18.9976 28.7102L19.0052 28.7244C18.8598 28.4408 18.7197 28.1542 18.5849 27.865L18.5908 27.8783C18.4602 27.5698 18.335 27.2589 18.2149 26.9459L18.2194 26.9584C18.1052 26.6284 17.9962 26.2964 17.8924 25.9627L17.8959 25.9746C17.7992 25.6266 17.7077 25.2771 17.6213 24.9262L17.6239 24.9375C17.5458 24.5754 17.4729 24.212 17.405 23.8477L17.4069 23.8586C17.3481 23.4863 17.2945 23.1131 17.2459 22.7393L17.2472 22.75C17.2084 22.3717 17.1747 21.9928 17.146 21.6136L17.1467 21.6242C17.1282 21.2441 17.1147 20.8639 17.1063 20.4835L17.1064 20.4941C17.1083 20.1167 17.1152 19.7393 17.1273 19.3622L17.1267 19.373C17.1488 19.0026 17.1759 18.6325 17.2083 18.2629L17.2072 18.2742C17.249 17.9151 17.296 17.5567 17.3484 17.1991L17.3465 17.2109C17.4074 16.8674 17.4736 16.5249 17.5453 16.1837L17.5425 16.1962C17.6217 15.8724 17.7062 15.5501 17.7964 15.2295L17.7923 15.243C17.8886 14.9429 17.9903 14.6447 18.0978 14.3488L18.092 14.3637C18.2039 14.0909 18.3214 13.8207 18.4448 13.5535L18.4367 13.5699C18.5626 13.3279 18.6941 13.0892 18.8316 12.8545L18.8203 12.8726C18.9582 12.6643 19.1017 12.4603 19.2512 12.2614L19.2352 12.2813C19.383 12.1093 19.5362 11.9427 19.6951 11.7826L19.6728 11.8033C19.8282 11.6695 19.9886 11.5424 20.1539 11.4232L20.1233 11.4431C20.2844 11.3485 20.4494 11.2621 20.618 11.1849L20.5787 11.2004C20.7438 11.1456 20.9115 11.1001 21.081 11.0648L21.0354 11.0715C21.204 11.0568 21.3733 11.0524 21.5426 11.0582L21.4965 11.0538C21.6684 11.0805 21.8392 11.1176 22.0079 11.1643L21.9674 11.1506C22.1418 11.2205 22.3131 11.3004 22.4807 11.3888L22.4488 11.3699C22.6233 11.4846 22.793 11.6081 22.958 11.7388L22.9345 11.7185C23.1057 11.8783 23.2712 12.0455 23.4312 12.2186L23.4144 12.199C23.579 12.403 23.7372 12.6129 23.8897 12.8276L23.8777 12.8096C24.0326 13.0558 24.1809 13.3067 24.3232 13.5614L24.3147 13.5453C24.457 13.8311 24.5927 14.1207 24.7225 14.4133L24.7164 14.3987C24.8438 14.7212 24.9646 15.0465 25.0796 15.3742L25.0752 15.361C25.1855 15.7166 25.2894 16.0744 25.3874 16.4341L25.3843 16.4219C25.4757 16.8068 25.5608 17.1934 25.64 17.5813L25.6379 17.57C25.7087 17.9801 25.7733 18.3913 25.8321 18.8036L25.8307 18.7929C25.8797 19.2236 25.9225 19.6552 25.9595 20.0873L25.9587 20.0771C25.9847 20.5238 26.0045 20.971 26.0185 21.4184C26.0205 21.8663 26.0165 22.3242 26.0066 22.782C25.9848 23.236 25.9564 23.6996 25.922 24.1627C25.876 24.6176 25.8229 25.0817 25.7636 25.545L25.765 25.535C25.6935 25.9953 25.6157 26.4546 25.5315 26.9127L25.5336 26.9026C25.4376 27.3532 25.3354 27.8025 25.2266 28.2502L25.2293 28.2396C25.1096 28.6755 24.9834 29.1096 24.8505 29.5415L24.8541 29.5304C24.7115 29.9465 24.5622 30.3602 24.4061 30.7712L24.4108 30.7595C24.2464 31.151 24.0753 31.5394 23.897 31.9245L23.9031 31.912C23.7184 32.2743 23.5268 32.6328 23.3279 32.987L23.3357 32.9738C23.1324 33.3025 22.922 33.6267 22.7043 33.9456L22.7145 33.9315C22.4944 34.2229 22.2673 34.5087 22.033 34.788L22.0461 34.7733C21.8113 35.0239 21.5698 35.2677 21.3212 35.5038L21.3381 35.4888C21.0909 35.6958 20.8373 35.8946 20.5774 36.0842L20.5987 36.0699C20.3412 36.2309 20.0782 36.3823 19.8099 36.523L19.8359 36.5107C19.5703 36.6239 19.3003 36.7261 19.0267 36.8163L19.0569 36.8078C18.785 36.8717 18.5105 36.9235 18.2342 36.9625L18.267 36.9594C17.9906 36.9728 17.7136 36.9733 17.437 36.9609L17.4697 36.9639C17.1906 36.9255 16.9131 36.874 16.6381 36.8104L16.6683 36.8188C16.3888 36.7275 16.113 36.6239 15.8416 36.509L15.8674 36.5212C15.5904 36.3767 15.3189 36.2209 15.053 36.0552L15.0741 36.0694C14.8029 35.8721 14.5384 35.6648 14.2805 35.4491L14.2971 35.4639C14.0351 35.2151 13.7806 34.958 13.5333 34.6936L13.5461 34.7081C13.2966 34.4102 13.055 34.1052 12.8208 33.7942L12.8306 33.808C12.5966 33.4639 12.3706 33.114 12.1522 32.7591L12.1597 32.772C11.9439 32.3853 11.7361 31.9938 11.5359 31.5984L11.5417 31.6104C11.3465 31.1852 11.1593 30.7562 10.9796 30.3239L10.984 30.3351C10.8117 29.8761 10.6471 29.414 10.49 28.9493L10.4934 28.9598C10.3457 28.4719 10.2056 27.9816 10.0729 27.4892L10.0754 27.4991C9.9539 26.9877 9.83991 26.4743 9.73323 25.9594C9.64093 25.4395 9.55424 24.9088 9.47483 24.3768C9.41029 23.8445 9.35185 23.3021 9.30069 22.7589C9.26456 22.2203 9.23501 21.6722 9.21275 21.1237C9.20533 20.5851 9.20497 20.0374 9.21194 19.4897C9.23317 18.9573 9.26193 18.4162 9.29814 17.8756C9.34757 17.3557 9.40511 16.8272 9.47022 16.2998C9.54704 15.7986 9.63261 15.289 9.72595 14.7809L9.72393 14.7909C9.82894 14.3043 9.94151 13.8195 10.062 13.3367L10.0592 13.3474C10.1896 12.8907 10.3278 12.4363 10.4742 11.9847L10.4702 11.9963C10.6243 11.5747 10.7863 11.1562 10.9568 10.7414L10.9513 10.754C11.1271 10.3725 11.3109 9.995 11.5034 9.62225L11.4959 9.63607C11.691 9.29917 11.8942 8.96731 12.1062 8.64156L12.0957 8.65667C12.3076 8.36823 12.5275 8.08618 12.7561 7.81189L12.7416 7.82809C12.9674 7.59133 13.201 7.36261 13.4427 7.1436L13.4229 7.16012C13.6599 6.9775 13.9039 6.80487 14.1549 6.64403L14.1287 6.65911C14.3744 6.5324 14.6257 6.4177 14.882 6.31665L14.8494 6.3275C15.1018 6.25792 15.3576 6.20219 15.6156 6.16121L15.579 6.16486C15.8366 6.15373 16.0947 6.15754 16.352 6.17611L16.3159 6.1714C16.577 6.22043 16.8356 6.28441 17.0905 6.36209L17.059 6.35063C17.3209 6.46152 17.5775 6.58625 17.8283 6.72292L17.8033 6.70779C18.0622 6.88128 18.3138 7.06677 18.5581 7.26222L18.5395 7.24608C18.791 7.48145 19.034 7.72676 19.269 7.98016L19.2555 7.96458C19.4955 8.25979 19.7264 8.56301 19.9489 8.87273L19.9392 8.85835C20.1639 9.21036 20.3792 9.56873 20.5861 9.93228L20.5791 9.91923C20.785 10.3242 20.9817 10.7343 21.1698 11.1484L21.1648 11.1366C21.3489 11.5902 21.5239 12.0477 21.6905 12.5084L21.6869 12.4977C21.8465 12.9949 21.9972 13.4952 22.1397 13.998L22.1371 13.9881C22.2699 14.5237 22.394 15.0615 22.5099 15.6012C22.6122 16.1599 22.7076 16.7296 22.7949 17.3006C22.8673 17.8861 22.9324 18.4815 22.9894 19.0777C23.0305 19.6834 23.0638 20.2981 23.0891 20.9131C23.0979 21.5321 23.0985 22.1593 23.0909 22.7865C23.0668 23.4117 23.034 24.0447 22.993 24.6771C22.9357 25.3014 22.8693 25.933 22.7945 26.5636C22.7042 27.1799 22.6043 27.8031 22.4957 28.4247C22.373 29.026 22.2401 29.6337 22.0983 30.2393C21.9442 30.8185 21.7792 31.4038 21.605 31.9864C21.4209 32.5367 21.225 33.0929 21.0197 33.6456L21.0234 33.6361C20.8074 34.1607 20.5823 34.6813 20.3475 35.1974L20.3523 35.1874C20.1093 35.6711 19.857 36.1501 19.5947 36.6233L19.601 36.6126C19.3333 37.0501 19.0561 37.4816 18.7688 37.9061L18.777 37.8947C18.4871 38.281 18.1878 38.6599 17.8784 39.0302L17.8891 39.0183C17.5798 39.349 17.2613 39.6707 16.9331 39.9819L16.9468 39.9698C16.621 40.2412 16.2866 40.5018 15.9434 40.7499L15.9607 40.7383C15.6213 40.9475 15.2743 41.1438 14.92 41.3255L14.9413 41.3157C14.591 41.4602 14.2348 41.5898 13.8737 41.7031L13.8984 41.6966C13.5398 41.7744 13.1778 41.8357 12.8137 41.8797L12.8402 41.8778C12.4759 41.8871 12.1112 41.879 11.7476 41.8536L11.7737 41.8567C11.4067 41.796 11.0424 41.7179 10.6822 41.6236L10.7059 41.631C10.3398 41.4993 9.97922 41.3513 9.62508 41.1886L9.64505 41.1988C9.284 40.9962 8.93077 40.779 8.58561 40.549L8.60162 40.5605C8.25006 40.2881 7.90785 40.0032 7.57477 39.7075L7.58721 39.7193C7.24953 39.3795 6.92206 39.0292 6.60432 38.67L6.61384 38.6814C6.29415 38.2777 5.98507 37.8654 5.68598 37.4456L5.69322 37.4563C5.39525 36.993 5.10799 36.5226 4.83078 36.0462L4.83628 36.0561C4.5634 35.5382 4.30117 35.0145 4.04892 34.4858L4.05309 34.4951C3.8083 33.9281 3.57398 33.3565 3.34954 32.781C3.13862 32.1798 2.9348 31.5663 2.74074 30.9496C2.56198 30.3117 2.39088 29.6628 2.22945 29.0115C2.08486 28.344 1.94839 27.6667 1.82148 26.9875C1.71264 26.2979 1.61227 25.5995 1.5214 24.8998C1.44943 24.1959 1.38625 23.484 1.33256 22.7713C1.29813 22.061 1.27282 21.3434 1.25703 20.6256C1.26036 19.917 1.27316 19.2017 1.29556 18.4866C1.33643 17.7877 1.38714 17.0826 1.4476 16.3784C1.52532 15.6972 1.61335 15.0103 1.71131 14.3248C1.82473 13.6692 1.94902 13.0082 2.08349 12.3494C2.23101 11.727 2.3901 11.0995 2.55965 10.4749C2.73921 9.893 2.93121 9.30627 3.13398 8.72339C3.34307 8.18874 3.56568 7.64963 3.7994 7.11552L3.79505 7.12489C4.03506 6.63444 4.2856 6.14931 4.54754 5.67062L4.54161 5.68083C4.80637 5.24873 5.08179 4.8234 5.36875 4.40628L5.36064 4.41735C5.64692 4.0484 5.94381 3.688 6.25207 3.338L6.24101 3.34971C6.54545 3.04791 6.86012 2.75684 7.18543 2.47871L7.17051 2.49043C7.48983 2.25893 7.81837 2.04071 8.15593 1.83814L8.13651 1.84856C8.46767 1.6898 8.80613 1.54701 9.15087 1.42227L9.12721 1.42942C9.46754 1.34545 9.81217 1.2798 10.1593 1.23357L10.1333 1.23554C10.4802 1.2284 10.8275 1.24091 11.1732 1.2727L11.1478 1.26892C11.4981 1.34069 11.8446 1.43189 12.1859 1.5408L12.1639 1.53249C12.5133 1.6846 12.8554 1.85447 13.1894 2.03963L13.172 2.02889C13.5154 2.26132 13.8489 2.50901 14.1728 2.76937L14.1597 2.75798C14.4917 3.06907 14.8124 3.39272 15.1226 3.72665L15.113 3.71565C15.4286 4.10229 15.7324 4.49905 16.0251 4.90405L16.0182 4.89389C16.3129 5.3519 16.5955 5.81796 16.867 6.29059L16.862 6.28137C17.1317 6.80572 17.3894 7.33643 17.6361 7.87235C17.8734 8.44894 18.1027 9.03886 18.3212 9.63289C18.5276 10.2644 18.7253 10.9074 18.9123 11.5536C19.0848 12.233 19.248 12.9222 19.4007 13.6139C19.5367 14.3336 19.663 15.0618 19.779 15.7918C19.8763 16.5436 19.9637 17.303 20.0408 18.0636C20.0979 18.8393 20.1448 19.6216 20.1813 20.4045C20.1971 21.1954 20.2023 21.9921 20.1971 22.7889C20.1708 23.5861 20.1336 24.3886 20.086 25.1904C20.0174 25.9852 19.9377 26.7844 19.8473 27.5825C19.7368 28.3657 19.6148 29.153 19.4818 29.9383C19.3302 30.7013 19.1666 31.4676 18.9918 32.2314C18.8004 32.9654 18.5965 33.7022 18.3809 34.4356C18.2327 34.8858 18.0777 35.3405 17.9178 35.7934C17.8314 36.0381 17.7436 36.2822 17.6543 36.5259C17.3892 37.1773 17.11 37.8304 16.8185 38.4779C16.5204 39.0768 16.2071 39.6764 15.8813 40.269C15.5533 40.8084 15.209 41.3476 14.852 41.8781C14.4976 42.352 14.1256 42.8244 13.741 43.2861L13.7481 43.278C13.364 43.6892 12.9681 44.0892 12.5599 44.476L12.569 44.4679C12.1642 44.8042 11.7483 45.1269 11.3212 45.4339L11.3329 45.4262C10.9108 45.6839 10.4791 45.9254 10.0382 46.1485L10.0524 46.142C9.61662 46.3181 9.17338 46.4753 8.72395 46.6119L8.74034 46.6077C8.29413 46.6995 7.8437 46.7703 7.39091 46.8192Z" fill="white"/>
<path d="M74.2112 15.7274C77.6923 15.7274 80.5143 18.5493 80.5143 22.0304C80.5143 25.5115 77.6923 28.3334 74.2112 28.3334C70.7302 28.3334 67.9082 25.5115 67.9082 22.0304C67.9082 18.5493 70.7302 15.7274 74.2112 15.7274Z" fill="#B12C2F"/>
</svg>
