<svg width="81" height="32" viewBox="0 0 81 32" fill="none" xmlns="http://www.w3.org/2000/svg">
<circle cx="16" cy="16" r="15.1304" stroke="#191919" stroke-width="1.73913"/>
<path fill-rule="evenodd" clip-rule="evenodd" d="M49.1845 4.74072C55.5664 4.74072 60.74 9.78166 60.74 16C60.74 22.0241 55.8845 26.9432 49.7788 27.2446L49.1845 27.2592L48.6165 27.2464C48.6083 27.246 48.6002 27.245 48.592 27.2446C48.5051 27.2403 48.4188 27.2306 48.3325 27.2244C48.2371 27.2175 48.1417 27.2116 48.0466 27.2024C45.9337 27.0012 43.9887 26.2466 42.3647 25.0877C42.3379 25.0685 42.3105 25.0502 42.2839 25.0308C42.0342 24.8494 41.7933 24.6573 41.5598 24.4573C41.373 24.2974 41.1906 24.1324 41.0143 23.9606C40.5776 23.5351 40.1781 23.0772 39.8181 22.5917C38.5498 20.8837 37.7578 18.8167 37.6421 16.5754C37.632 16.384 37.6289 16.1921 37.6289 16C37.6289 15.6291 37.648 15.2591 37.6853 14.8913C37.8914 12.8371 38.6652 10.9463 39.8501 9.36611C40.2018 8.89631 40.5904 8.45241 41.0143 8.03933C41.2243 7.83474 41.4421 7.63876 41.667 7.45108C41.8673 7.28371 42.072 7.12118 42.2839 6.96729C42.3278 6.9354 42.373 6.90509 42.4174 6.87382C44.0306 5.73621 45.9567 4.99475 48.0466 4.7957C48.1417 4.78653 48.2371 4.78058 48.3325 4.77371C48.4188 4.76758 48.5051 4.75782 48.592 4.75355C48.7891 4.7437 48.9867 4.74072 49.1845 4.74072ZM49.1845 25.3827C54.5028 25.3827 58.8141 21.1819 58.8141 16C58.8141 10.9797 54.7675 6.88097 49.6791 6.63009L49.1845 6.61727V25.3827Z" fill="#191919"/>
<path d="M73.4803 8.88892C77.4076 8.88892 80.5914 12.0727 80.5914 16C80.5914 19.9274 77.4076 23.1111 73.4803 23.1111C69.5529 23.1111 66.3691 19.9274 66.3691 16C66.3691 12.0727 69.5529 8.88892 73.4803 8.88892Z" fill="#B12C2F"/>
</svg>
