<svg width="58" height="32" viewBox="0 0 58 32" fill="none" xmlns="http://www.w3.org/2000/svg">
<path d="M23.6579 12.4136C25.2273 12.4136 26.4995 13.6858 26.4995 15.2552C26.4995 16.8245 25.2273 18.0967 23.6579 18.0967C22.0886 18.0967 20.8164 16.8245 20.8164 15.2552C20.8164 13.6858 22.0886 12.4136 23.6579 12.4136Z" fill="#B12C2F"/>
<path d="M41.113 12.4136C42.6823 12.4136 43.9545 13.6858 43.9545 15.2551C43.9545 16.8244 42.6823 18.0966 41.113 18.0966C39.5437 18.0966 38.2715 16.8244 38.2715 15.2551C38.2715 13.6858 39.5437 12.4136 41.113 12.4136Z" fill="#191919"/>
<path d="M54.6911 12.4136C56.2605 12.4136 57.5327 13.6858 57.5327 15.2551C57.5327 16.8244 56.2605 18.0966 54.6911 18.0966C53.1218 18.0966 51.8496 16.8244 51.8496 15.2551C51.8496 13.6858 53.1218 12.4136 54.6911 12.4136Z" fill="#191919"/>
<path d="M31.6073 15.9589C31.52 19.9448 29.8126 23.8514 26.9634 26.6147C26.0078 27.548 24.9301 28.356 23.7672 29.0114C22.5013 29.7252 21.1342 30.2583 19.7196 30.5896C19.6979 30.5947 19.676 30.5994 19.6543 30.6044C19.4848 30.6433 19.3068 30.6134 19.1594 30.5211C19.012 30.4287 18.9071 30.2818 18.8682 30.1123C18.8293 29.9428 18.8592 29.7647 18.9515 29.6174C19.0438 29.47 19.1913 29.3656 19.3608 29.3266C19.3805 29.3221 19.4003 29.3174 19.42 29.3127C20.7135 29.0099 21.9631 28.5198 23.1176 27.8632C24.1782 27.2606 25.1587 26.5174 26.025 25.6596C28.6087 23.1202 30.1176 19.5385 30.1355 15.9334C30.1795 12.3279 28.7335 8.74839 26.2278 6.2003C23.7399 3.63352 20.2283 2.13172 16.7007 2.09067C13.172 2.02416 9.67571 3.41567 7.1879 5.83179C4.68143 8.23107 3.21463 11.6188 3.15605 15.0121C3.07283 18.407 4.39332 21.761 6.68467 24.1434C7.52084 25.0198 8.47904 25.7701 9.51794 26.3665C10.5729 26.9727 11.711 27.42 12.8818 27.6933C13.4457 27.8288 13.9198 28.1982 14.2039 28.7049C14.4881 29.2118 14.5584 29.8176 14.3998 30.3863C14.2411 30.955 13.8673 31.4367 13.3618 31.7233C12.8564 32.0098 12.2599 32.0803 11.7072 31.9044C10.1575 31.4194 8.68566 30.7119 7.34993 29.8146C6.03449 28.9316 4.85079 27.8644 3.84399 26.6586C1.08279 23.3748 -0.286198 19.0358 0.0514839 14.8506C0.36115 10.661 2.3683 6.67614 5.47544 3.96424C8.56553 1.23035 12.7147 -0.200354 16.7724 0.022665C20.8327 0.218489 24.752 2.06206 27.4717 5.01931C30.212 7.95898 31.7213 11.9743 31.6073 15.9589Z" fill="#191919"/>
</svg>
