<svg width="58" height="32" viewBox="0 0 58 32" fill="none" xmlns="http://www.w3.org/2000/svg">
<path d="M23.656 12.4136C25.2253 12.4136 26.4975 13.6858 26.4975 15.2552C26.4975 16.8245 25.2253 18.0967 23.656 18.0967C22.0866 18.0967 20.8145 16.8245 20.8145 15.2552C20.8145 13.6858 22.0866 12.4136 23.656 12.4136Z" fill="#B12C2F"/>
<path d="M41.1111 12.4136C42.6804 12.4136 43.9526 13.6858 43.9526 15.2551C43.9526 16.8244 42.6804 18.0966 41.1111 18.0966C39.5417 18.0966 38.2695 16.8244 38.2695 15.2551C38.2695 13.6858 39.5417 12.4136 41.1111 12.4136Z" fill="white"/>
<path d="M54.6892 12.4136C56.2585 12.4136 57.5307 13.6858 57.5307 15.2551C57.5307 16.8244 56.2585 18.0966 54.6892 18.0966C53.1198 18.0966 51.8477 16.8244 51.8477 15.2551C51.8477 13.6858 53.1198 12.4136 54.6892 12.4136Z" fill="white"/>
<path d="M31.6053 15.9589C31.5181 19.9449 29.8106 23.8514 26.9614 26.6147C26.0058 27.5481 24.9281 28.3561 23.7652 29.0114C22.4993 29.7253 21.1322 30.2584 19.7176 30.5896C19.6959 30.5947 19.674 30.5995 19.6523 30.6044C19.4828 30.6434 19.3048 30.6134 19.1574 30.5211C19.0101 30.4288 18.9052 30.2818 18.8662 30.1123C18.8273 29.9429 18.8573 29.7648 18.9496 29.6174C19.0419 29.47 19.1893 29.3656 19.3588 29.3267C19.3786 29.3222 19.3983 29.3174 19.4181 29.3128C20.7116 29.0099 21.9612 28.5199 23.1157 27.8633C24.1763 27.2606 25.1567 26.5175 26.023 25.6597C28.6067 23.1203 30.1156 19.5386 30.1336 15.9335C30.1775 12.3279 28.7315 8.74845 26.2258 6.20037C23.7379 3.63358 20.2264 2.13178 16.6987 2.09074C13.1701 2.02422 9.67376 3.41573 7.18595 5.83185C4.67947 8.23113 3.21267 11.6188 3.15409 15.0122C3.07088 18.4071 4.39137 21.761 6.68272 24.1435C7.51889 25.0199 8.47709 25.7701 9.51599 26.3666C10.5709 26.9728 11.709 27.4201 12.8798 27.6934C13.4438 27.8289 13.9178 28.1982 14.202 28.705C14.4861 29.2119 14.5564 29.8177 14.3978 30.3864C14.2392 30.9551 13.8653 31.4368 13.3599 31.7234C12.8545 32.0099 12.2579 32.0804 11.7053 31.9044C10.1556 31.4195 8.68371 30.712 7.34798 29.8147C6.03253 28.9316 4.84884 27.8645 3.84204 26.6587C1.08083 23.3749 -0.288151 19.0359 0.0495308 14.8506C0.359197 10.6611 2.36635 6.6762 5.47349 3.9643C8.56358 1.23041 12.7128 -0.200293 16.7705 0.022726C20.8308 0.21855 24.75 2.06212 27.4698 5.01937C30.21 7.95904 31.7193 11.9743 31.6053 15.9589Z" fill="white"/>
</svg>
