<svg width="58" height="32" viewBox="0 0 58 32" fill="none" xmlns="http://www.w3.org/2000/svg">
<path d="M23.6579 12.4136C25.2273 12.4136 26.4995 13.6858 26.4995 15.2551C26.4995 16.8244 25.2273 18.0966 23.6579 18.0966C22.0886 18.0966 20.8164 16.8244 20.8164 15.2551C20.8164 13.6858 22.0886 12.4136 23.6579 12.4136Z" fill="#B12C2F"/>
<path d="M41.113 12.4136C42.6823 12.4136 43.9545 13.6858 43.9545 15.2551C43.9545 16.8244 42.6823 18.0966 41.113 18.0966C39.5437 18.0966 38.2715 16.8244 38.2715 15.2551C38.2715 13.6858 39.5437 12.4136 41.113 12.4136Z" fill="#191919"/>
<path d="M54.6911 12.4136C56.2605 12.4136 57.5327 13.6858 57.5327 15.2551C57.5327 16.8244 56.2605 18.0966 54.6911 18.0966C53.1218 18.0966 51.8496 16.8244 51.8496 15.2551C51.8496 13.6858 53.1218 12.4136 54.6911 12.4136Z" fill="#191919"/>
<path d="M31.6053 15.9589C31.5181 19.9448 29.8106 23.8514 26.9614 26.6147C26.0058 27.548 24.9281 28.356 23.7652 29.0114C22.4993 29.7252 21.1322 30.2583 19.7176 30.5896C19.6959 30.5947 19.674 30.5994 19.6523 30.6044C19.4828 30.6433 19.3048 30.6134 19.1574 30.5211C19.0101 30.4287 18.9052 30.2818 18.8662 30.1123C18.8273 29.9428 18.8573 29.7647 18.9496 29.6174C19.0419 29.47 19.1893 29.3656 19.3588 29.3266C19.3786 29.3221 19.3983 29.3174 19.4181 29.3127C20.7116 29.0099 21.9612 28.5198 23.1157 27.8632C24.1763 27.2606 25.1567 26.5174 26.023 25.6596C28.6067 23.1202 30.1156 19.5385 30.1336 15.9334C30.1775 12.3279 28.7315 8.74839 26.2258 6.2003C23.7379 3.63352 20.2264 2.13172 16.6987 2.09067C13.1701 2.02416 9.67376 3.41567 7.18595 5.83179C4.67947 8.23107 3.21267 11.6188 3.15409 15.0121C3.07088 18.407 4.39137 21.761 6.68272 24.1434C7.51889 25.0198 8.47709 25.7701 9.51599 26.3665C10.5709 26.9727 11.709 27.42 12.8798 27.6933C13.4438 27.8288 13.9178 28.1982 14.202 28.7049C14.4861 29.2118 14.5564 29.8176 14.3978 30.3863C14.2392 30.955 13.8653 31.4367 13.3599 31.7233C12.8545 32.0098 12.2579 32.0803 11.7053 31.9044C10.1556 31.4194 8.68371 30.7119 7.34798 29.8146C6.03253 28.9316 4.84884 27.8644 3.84204 26.6586C1.08083 23.3748 -0.288151 19.0358 0.0495308 14.8506C0.359197 10.661 2.36635 6.67614 5.47349 3.96424C8.56358 1.23035 12.7128 -0.200354 16.7705 0.022665C20.8308 0.218489 24.75 2.06206 27.4698 5.01931C30.21 7.95898 31.7193 11.9743 31.6053 15.9589Z" fill="#191919"/>
</svg>
