<svg width="84" height="32" viewBox="0 0 84 32" fill="none" xmlns="http://www.w3.org/2000/svg">
<path d="M33 4.58105C26.8868 4.80646 22.0001 9.83173 22 16C22 22.1683 26.8868 27.1925 33 27.418V32H6.0957C2.7294 32 0 29.2706 0 25.9043V6.0957C0 2.7294 2.7294 0 6.0957 0H33V4.58105Z" fill="#191919"/>
<path d="M49.8583 4.57132C51.3591 4.57132 52.8452 4.86693 54.2318 5.44127C55.6184 6.01561 56.8782 6.85743 57.9395 7.91867C59.0007 8.97992 59.8425 10.2398 60.4169 11.6264C60.9912 13.0129 61.2868 14.4991 61.2868 15.9999C61.2868 17.5007 60.9912 18.9868 60.4169 20.3734C59.8425 21.76 59.0007 23.0199 57.9395 24.0811C56.8782 25.1424 55.6184 25.9842 54.2318 26.5585C52.8452 27.1329 51.3591 27.4285 49.8583 27.4285L49.8583 15.9999L49.8583 4.57132Z" fill="#191919"/>
<circle cx="78.5246" cy="15.9999" r="4.57143" fill="#B12C2F"/>
</svg>
